<svg xmlns="http://www.w3.org/2000/svg" xmlns:xlink="http://www.w3.org/1999/xlink" width="1024" zoomAndPan="magnify" viewBox="0 0 768 767.999994" height="1024" preserveAspectRatio="xMidYMid meet" version="1.0"><defs><clipPath id="5a70cbbc26"><path d="M 129.433594 124.597656 L 359.832031 124.597656 L 359.832031 355 L 129.433594 355 Z M 129.433594 124.597656 " clip-rule="nonzero"/></clipPath><clipPath id="a8b9ddcd19"><path d="M 0.433594 0.597656 L 230.832031 0.597656 L 230.832031 231 L 0.433594 231 Z M 0.433594 0.597656 " clip-rule="nonzero"/></clipPath><clipPath id="51298a2950"><rect x="0" width="231" y="0" height="231"/></clipPath></defs><rect x="-76.8" width="921.6" fill="#ffffff" y="-76.799999" height="921.599993" fill-opacity="1"/><rect x="-76.8" width="921.6" fill="#000000" y="-76.799999" height="921.599993" fill-opacity="1"/><g clip-path="url(#5a70cbbc26)"><g transform="matrix(1, 0, 0, 1, 129, 124)"><g clip-path="url(#51298a2950)"><g clip-path="url(#a8b9ddcd19)"><path fill="#3871c1" d="M 0.433594 0.597656 L 230.832031 0.597656 L 230.832031 231 L 0.433594 231 Z M 0.433594 0.597656 " fill-opacity="1" fill-rule="nonzero"/></g></g></g></g><rect x="-76.8" width="921.6" fill="#e9eaea" y="-76.799999" height="921.599993" fill-opacity="1"/><path fill="#9fa7ad" d="M 774.125 651.175781 L 676.921875 651.175781 L 676.921875 555.175781 L 774.125 555.175781 L 774.125 539.472656 L 676.921875 539.472656 L 676.921875 443.476562 L 774.125 443.476562 L 774.125 427.769531 L 676.921875 427.769531 L 676.921875 331.773438 L 774.125 331.773438 L 774.125 316.0625 L 676.921875 316.0625 L 676.921875 220.066406 L 774.125 220.066406 L 774.125 204.359375 L 676.921875 204.359375 L 676.921875 108.367188 L 774.125 108.367188 L 774.125 92.660156 L 676.921875 92.660156 L 676.921875 0 L 661.210938 0 L 661.210938 92.660156 L 565.179688 92.660156 L 565.179688 0 L 549.464844 0 L 549.464844 92.660156 L 453.429688 92.660156 L 453.429688 0 L 437.714844 0 L 437.714844 92.660156 L 341.683594 92.660156 L 341.683594 0 L 325.96875 0 L 325.96875 92.660156 L 229.933594 92.660156 L 229.933594 0 L 214.222656 0 L 214.222656 92.660156 L 118.191406 92.660156 L 118.191406 0 L 102.476562 0 L 102.476562 92.660156 L -5.816406 92.660156 L -5.816406 108.367188 L 102.476562 108.367188 L 102.476562 204.359375 L -5.816406 204.359375 L -5.816406 220.066406 L 102.476562 220.066406 L 102.476562 316.0625 L -5.816406 316.0625 L -5.816406 331.773438 L 102.476562 331.773438 L 102.476562 427.769531 L -5.816406 427.769531 L -5.816406 443.476562 L 102.476562 443.476562 L 102.476562 539.472656 L -5.816406 539.472656 L -5.816406 555.175781 L 102.476562 555.175781 L 102.476562 651.175781 L -5.816406 651.175781 L -5.816406 666.882812 L 102.476562 666.882812 L 102.476562 768 L 118.191406 768 L 118.191406 666.882812 L 214.222656 666.882812 L 214.222656 768 L 229.933594 768 L 229.933594 666.882812 L 325.96875 666.882812 L 325.96875 768 L 341.683594 768 L 341.683594 666.882812 L 437.714844 666.882812 L 437.714844 768 L 453.429688 768 L 453.429688 666.882812 L 549.464844 666.882812 L 549.464844 768 L 565.179688 768 L 565.179688 666.882812 L 661.210938 666.882812 L 661.210938 768 L 676.921875 768 L 676.921875 666.882812 L 774.125 666.882812 Z M 214.222656 651.175781 L 118.191406 651.175781 L 118.191406 555.175781 L 214.222656 555.175781 Z M 214.222656 539.472656 L 118.191406 539.472656 L 118.191406 443.476562 L 214.222656 443.476562 Z M 214.222656 427.769531 L 118.191406 427.769531 L 118.191406 331.773438 L 214.222656 331.773438 Z M 214.222656 316.0625 L 118.191406 316.0625 L 118.191406 220.066406 L 214.222656 220.066406 Z M 214.222656 204.359375 L 118.191406 204.359375 L 118.191406 108.367188 L 214.222656 108.367188 Z M 325.96875 651.175781 L 229.933594 651.175781 L 229.933594 555.175781 L 325.96875 555.175781 Z M 325.96875 539.472656 L 229.933594 539.472656 L 229.933594 443.476562 L 325.96875 443.476562 Z M 325.96875 427.769531 L 229.933594 427.769531 L 229.933594 331.773438 L 325.96875 331.773438 Z M 325.96875 316.0625 L 229.933594 316.0625 L 229.933594 220.066406 L 325.96875 220.066406 Z M 325.96875 204.359375 L 229.933594 204.359375 L 229.933594 108.367188 L 325.96875 108.367188 Z M 437.714844 651.175781 L 341.683594 651.175781 L 341.683594 555.175781 L 437.714844 555.175781 Z M 437.714844 539.472656 L 341.683594 539.472656 L 341.683594 443.476562 L 437.714844 443.476562 Z M 437.714844 427.769531 L 341.683594 427.769531 L 341.683594 331.773438 L 437.714844 331.773438 Z M 437.714844 316.0625 L 341.683594 316.0625 L 341.683594 220.066406 L 437.714844 220.066406 Z M 437.714844 204.359375 L 341.683594 204.359375 L 341.683594 108.367188 L 437.714844 108.367188 Z M 549.464844 651.175781 L 453.429688 651.175781 L 453.429688 555.175781 L 549.464844 555.175781 Z M 549.464844 539.472656 L 453.429688 539.472656 L 453.429688 443.476562 L 549.464844 443.476562 Z M 549.464844 427.769531 L 453.429688 427.769531 L 453.429688 331.773438 L 549.464844 331.773438 Z M 549.464844 316.0625 L 453.429688 316.0625 L 453.429688 220.066406 L 549.464844 220.066406 Z M 549.464844 204.359375 L 453.429688 204.359375 L 453.429688 108.367188 L 549.464844 108.367188 Z M 661.210938 651.175781 L 565.179688 651.175781 L 565.179688 555.175781 L 661.210938 555.175781 Z M 661.210938 539.472656 L 565.179688 539.472656 L 565.179688 443.476562 L 661.210938 443.476562 Z M 661.210938 427.769531 L 565.179688 427.769531 L 565.179688 331.773438 L 661.210938 331.773438 Z M 661.210938 316.0625 L 565.179688 316.0625 L 565.179688 220.066406 L 661.210938 220.066406 Z M 661.210938 204.359375 L 565.179688 204.359375 L 565.179688 108.367188 L 661.210938 108.367188 L 661.210938 204.359375 " fill-opacity="1" fill-rule="evenodd"/><path fill="#3871c1" d="M 630.367188 434.167969 L 259.628906 434.167969 C 240.371094 434.167969 224.707031 418.507812 224.707031 399.257812 L 224.707031 348.0625 C 224.707031 328.8125 240.371094 313.15625 259.628906 313.15625 L 630.367188 313.15625 C 649.625 313.15625 665.292969 328.8125 665.292969 348.0625 L 665.292969 399.257812 C 665.292969 418.507812 649.625 434.167969 630.367188 434.167969 Z M 259.628906 336.425781 C 253.207031 336.425781 247.988281 341.644531 247.988281 348.0625 L 247.988281 399.257812 C 247.988281 405.675781 253.207031 410.894531 259.628906 410.894531 L 630.367188 410.894531 C 636.789062 410.894531 642.007812 405.675781 642.007812 399.257812 L 642.007812 348.0625 C 642.007812 341.644531 636.789062 336.425781 630.367188 336.425781 L 259.628906 336.425781 " fill-opacity="1" fill-rule="nonzero"/><path fill="#3871c1" d="M 188.078125 765.15625 L 136.199219 765.15625 C 117.609375 765.15625 102.480469 750.035156 102.480469 731.449219 L 102.480469 572.011719 C 102.480469 553.425781 117.609375 538.304688 136.199219 538.304688 L 188.078125 538.304688 C 206.671875 538.304688 221.796875 553.425781 221.796875 572.011719 L 221.796875 731.449219 C 221.796875 750.035156 206.671875 765.15625 188.078125 765.15625 Z M 136.199219 561.578125 C 130.445312 561.578125 125.761719 566.257812 125.761719 572.011719 L 125.761719 731.449219 C 125.761719 737.199219 130.445312 741.882812 136.199219 741.882812 L 188.078125 741.882812 C 193.828125 741.882812 198.511719 737.199219 198.511719 731.449219 L 198.511719 572.011719 C 198.511719 566.257812 193.828125 561.578125 188.078125 561.578125 L 136.199219 561.578125 " fill-opacity="1" fill-rule="nonzero"/><path fill="#3871c1" d="M 646.082031 221.230469 L 582.644531 221.230469 C 563.390625 221.230469 547.722656 205.574219 547.722656 186.324219 L 547.722656 122.914062 C 547.722656 103.664062 563.390625 88.003906 582.644531 88.003906 L 646.082031 88.003906 C 665.339844 88.003906 681.007812 103.664062 681.007812 122.914062 L 681.007812 186.324219 C 681.007812 205.574219 665.339844 221.230469 646.082031 221.230469 Z M 582.644531 111.277344 C 576.230469 111.277344 571.003906 116.496094 571.003906 122.914062 L 571.003906 186.324219 C 571.003906 192.742188 576.230469 197.960938 582.644531 197.960938 L 646.082031 197.960938 C 652.503906 197.960938 657.726562 192.742188 657.726562 186.324219 L 657.726562 122.914062 C 657.726562 116.496094 652.503906 111.277344 646.082031 111.277344 L 582.644531 111.277344 " fill-opacity="1" fill-rule="nonzero"/><path fill="#3871c1" d="M 178.15625 157.085938 C 178.15625 164.15625 172.421875 169.886719 165.351562 169.886719 C 158.28125 169.886719 152.546875 164.15625 152.546875 157.085938 C 152.546875 150.019531 158.28125 144.285156 165.351562 144.285156 C 172.421875 144.285156 178.15625 150.019531 178.15625 157.085938 " fill-opacity="1" fill-rule="evenodd"/><path fill="#3871c1" d="M 403.988281 495.703125 C 403.988281 502.773438 398.253906 508.503906 391.183594 508.503906 C 384.113281 508.503906 378.378906 502.773438 378.378906 495.703125 C 378.378906 488.636719 384.113281 482.90625 391.183594 482.90625 C 398.253906 482.90625 403.988281 488.636719 403.988281 495.703125 " fill-opacity="1" fill-rule="evenodd"/><path fill="#3871c1" d="M 59.417969 381.667969 C 59.417969 388.738281 53.683594 394.46875 46.613281 394.46875 C 39.542969 394.46875 33.808594 388.738281 33.808594 381.667969 C 33.808594 374.601562 39.542969 368.867188 46.613281 368.867188 C 53.683594 368.867188 59.417969 374.601562 59.417969 381.667969 " fill-opacity="1" fill-rule="evenodd"/><path fill="#3871c1" d="M 403.988281 157.085938 C 403.988281 164.15625 398.253906 169.886719 391.183594 169.886719 C 384.113281 169.886719 378.378906 164.15625 378.378906 157.085938 C 378.378906 150.019531 384.113281 144.285156 391.183594 144.285156 C 398.253906 144.285156 403.988281 150.019531 403.988281 157.085938 " fill-opacity="1" fill-rule="evenodd"/><path fill="#3871c1" d="M 628.660156 46.539062 C 628.660156 53.609375 622.925781 59.339844 615.855469 59.339844 C 608.78125 59.339844 603.050781 53.609375 603.050781 46.539062 C 603.050781 39.472656 608.78125 33.742188 615.855469 33.742188 C 622.925781 33.742188 628.660156 39.472656 628.660156 46.539062 " fill-opacity="1" fill-rule="evenodd"/><path fill="#3871c1" d="M 742.738281 379.339844 C 742.738281 386.410156 737.003906 392.140625 729.933594 392.140625 C 722.863281 392.140625 717.128906 386.410156 717.128906 379.339844 C 717.128906 372.273438 722.863281 366.539062 729.933594 366.539062 C 737.003906 366.539062 742.738281 372.273438 742.738281 379.339844 " fill-opacity="1" fill-rule="evenodd"/><path fill="#3871c1" d="M 629.824219 603.921875 C 629.824219 610.992188 624.089844 616.722656 617.019531 616.722656 C 609.945312 616.722656 604.214844 610.992188 604.214844 603.921875 C 604.214844 596.855469 609.945312 591.121094 617.019531 591.121094 C 624.089844 591.121094 629.824219 596.855469 629.824219 603.921875 " fill-opacity="1" fill-rule="evenodd"/><path fill="#3871c1" d="M 58.253906 45.378906 C 58.253906 52.445312 52.519531 58.175781 45.449219 58.175781 C 38.378906 58.175781 32.644531 52.445312 32.644531 45.378906 C 32.644531 38.308594 38.378906 32.578125 45.449219 32.578125 C 52.519531 32.578125 58.253906 38.308594 58.253906 45.378906 " fill-opacity="1" fill-rule="evenodd"/><path fill="#3871c1" d="M 291.074219 606.25 C 291.074219 613.316406 285.339844 619.050781 278.265625 619.050781 C 271.195312 619.050781 265.460938 613.316406 265.460938 606.25 C 265.460938 599.183594 271.195312 593.449219 278.265625 593.449219 C 285.339844 593.449219 291.074219 599.183594 291.074219 606.25 " fill-opacity="1" fill-rule="evenodd"/><path fill="#ac1d22" d="M 520.757812 369.757812 L 559.035156 331.496094 C 564.261719 326.273438 564.261719 317.796875 559.035156 312.574219 C 553.808594 307.34375 545.332031 307.34375 540.101562 312.574219 L 501.828125 350.832031 L 463.550781 312.574219 C 458.324219 307.351562 449.847656 307.351562 444.617188 312.574219 C 439.390625 317.800781 439.390625 326.273438 444.617188 331.5 L 482.894531 369.757812 L 444.617188 408.019531 C 439.390625 413.246094 439.390625 421.714844 444.617188 426.941406 C 449.847656 432.167969 458.324219 432.167969 463.550781 426.941406 L 501.828125 388.683594 L 540.101562 426.945312 C 545.332031 432.171875 553.808594 432.171875 559.035156 426.945312 C 564.261719 421.71875 564.261719 413.246094 559.035156 408.023438 L 520.757812 369.757812 " fill-opacity="1" fill-rule="evenodd"/></svg>