<svg xmlns="http://www.w3.org/2000/svg" xmlns:xlink="http://www.w3.org/1999/xlink" width="1024" zoomAndPan="magnify" viewBox="0 0 768 767.999994" height="1024" preserveAspectRatio="xMidYMid meet" version="1.0"><defs><clipPath id="0bb814fdfe"><path d="M 129.433594 124.597656 L 359.832031 124.597656 L 359.832031 355 L 129.433594 355 Z M 129.433594 124.597656 " clip-rule="nonzero"/></clipPath><clipPath id="f9c5fffdbf"><path d="M 0.433594 0.597656 L 230.832031 0.597656 L 230.832031 231 L 0.433594 231 Z M 0.433594 0.597656 " clip-rule="nonzero"/></clipPath><clipPath id="108596c514"><rect x="0" width="231" y="0" height="231"/></clipPath><clipPath id="499f17279a"><path d="M 85 109.699219 L 683 109.699219 L 683 614 L 85 614 Z M 85 109.699219 " clip-rule="nonzero"/></clipPath><clipPath id="8ef1024d13"><path d="M 37.332031 599 L 730.332031 599 L 730.332031 657.949219 L 37.332031 657.949219 Z M 37.332031 599 " clip-rule="nonzero"/></clipPath></defs><rect x="-76.8" width="921.6" fill="#ffffff" y="-76.799999" height="921.599993" fill-opacity="1"/><rect x="-76.8" width="921.6" fill="#000000" y="-76.799999" height="921.599993" fill-opacity="1"/><g clip-path="url(#0bb814fdfe)"><g transform="matrix(1, 0, 0, 1, 129, 124)"><g clip-path="url(#108596c514)"><g clip-path="url(#f9c5fffdbf)"><path fill="#3871c1" d="M 0.433594 0.597656 L 230.832031 0.597656 L 230.832031 231 L 0.433594 231 Z M 0.433594 0.597656 " fill-opacity="1" fill-rule="nonzero"/></g></g></g></g><g clip-path="url(#499f17279a)"><path fill="#c8effe" d="M 682.519531 599.742188 L 385.179688 613.679688 L 85.140625 599.742188 L 85.140625 127.816406 C 85.140625 117.824219 93.242188 109.722656 103.238281 109.722656 L 664.421875 109.722656 C 674.417969 109.722656 682.519531 117.824219 682.519531 127.816406 Z M 682.519531 599.742188 " fill-opacity="1" fill-rule="nonzero"/><path fill="#99e6fc" d="M 664.425781 109.722656 L 640.703125 109.722656 L 640.703125 525.109375 C 640.703125 543.238281 626.007812 557.933594 607.875 557.933594 L 85.140625 557.933594 L 85.140625 599.742188 L 385.179688 613.679688 L 682.519531 599.742188 L 682.519531 127.816406 C 682.519531 117.824219 674.417969 109.722656 664.425781 109.722656 Z M 664.425781 109.722656 " fill-opacity="1" fill-rule="nonzero"/></g><path fill="#faf7f7" d="M 191.605469 186.398438 C 191.605469 187.335938 191.558594 188.269531 191.46875 189.203125 C 191.375 190.132812 191.238281 191.058594 191.054688 191.980469 C 190.875 192.898438 190.644531 193.808594 190.375 194.703125 C 190.101562 195.601562 189.785156 196.480469 189.425781 197.347656 C 189.070312 198.214844 188.667969 199.058594 188.226562 199.886719 C 187.785156 200.710938 187.304688 201.515625 186.78125 202.292969 C 186.261719 203.074219 185.703125 203.824219 185.109375 204.550781 C 184.515625 205.273438 183.886719 205.96875 183.222656 206.628906 C 182.5625 207.292969 181.867188 207.921875 181.144531 208.515625 C 180.417969 209.109375 179.667969 209.667969 178.886719 210.1875 C 178.109375 210.710938 177.304688 211.191406 176.476562 211.632812 C 175.652344 212.074219 174.804688 212.472656 173.9375 212.832031 C 173.074219 213.191406 172.191406 213.507812 171.292969 213.777344 C 170.398438 214.050781 169.488281 214.277344 168.570312 214.460938 C 167.652344 214.644531 166.726562 214.78125 165.792969 214.875 C 164.859375 214.964844 163.925781 215.011719 162.988281 215.011719 C 162.050781 215.011719 161.113281 214.964844 160.183594 214.875 C 159.25 214.78125 158.324219 214.644531 157.402344 214.460938 C 156.484375 214.277344 155.578125 214.050781 154.679688 213.777344 C 153.78125 213.507812 152.902344 213.191406 152.035156 212.832031 C 151.167969 212.472656 150.324219 212.074219 149.496094 211.632812 C 148.671875 211.191406 147.867188 210.710938 147.085938 210.1875 C 146.308594 209.667969 145.554688 209.109375 144.832031 208.515625 C 144.105469 207.921875 143.414062 207.292969 142.75 206.628906 C 142.089844 205.96875 141.460938 205.273438 140.863281 204.550781 C 140.269531 203.824219 139.710938 203.074219 139.191406 202.292969 C 138.671875 201.515625 138.191406 200.710938 137.746094 199.886719 C 137.304688 199.058594 136.90625 198.214844 136.546875 197.347656 C 136.1875 196.480469 135.875 195.601562 135.601562 194.703125 C 135.328125 193.808594 135.101562 192.898438 134.917969 191.980469 C 134.734375 191.058594 134.597656 190.132812 134.507812 189.203125 C 134.414062 188.269531 134.367188 187.335938 134.367188 186.398438 C 134.367188 185.460938 134.414062 184.523438 134.507812 183.59375 C 134.597656 182.660156 134.734375 181.734375 134.917969 180.816406 C 135.101562 179.894531 135.328125 178.988281 135.601562 178.089844 C 135.875 177.195312 136.1875 176.3125 136.546875 175.445312 C 136.90625 174.582031 137.304688 173.734375 137.746094 172.910156 C 138.191406 172.082031 138.671875 171.28125 139.191406 170.5 C 139.710938 169.722656 140.269531 168.96875 140.863281 168.246094 C 141.460938 167.519531 142.089844 166.828125 142.75 166.164062 C 143.414062 165.5 144.105469 164.871094 144.832031 164.277344 C 145.554688 163.683594 146.308594 163.125 147.085938 162.605469 C 147.867188 162.085938 148.671875 161.605469 149.496094 161.164062 C 150.324219 160.71875 151.167969 160.320312 152.035156 159.960938 C 152.902344 159.601562 153.78125 159.289062 154.679688 159.015625 C 155.578125 158.742188 156.484375 158.515625 157.402344 158.332031 C 158.324219 158.152344 159.25 158.011719 160.183594 157.921875 C 161.113281 157.828125 162.050781 157.785156 162.988281 157.785156 C 163.925781 157.785156 164.859375 157.828125 165.792969 157.921875 C 166.726562 158.011719 167.652344 158.152344 168.570312 158.332031 C 169.488281 158.515625 170.398438 158.742188 171.292969 159.015625 C 172.191406 159.289062 173.074219 159.601562 173.9375 159.960938 C 174.804688 160.320312 175.652344 160.71875 176.476562 161.164062 C 177.304688 161.605469 178.109375 162.085938 178.886719 162.605469 C 179.667969 163.125 180.417969 163.683594 181.144531 164.277344 C 181.867188 164.875 182.5625 165.5 183.222656 166.164062 C 183.886719 166.828125 184.515625 167.519531 185.109375 168.246094 C 185.703125 168.96875 186.261719 169.722656 186.78125 170.5 C 187.304688 171.28125 187.785156 172.082031 188.226562 172.910156 C 188.667969 173.734375 189.070312 174.582031 189.425781 175.445312 C 189.785156 176.3125 190.101562 177.195312 190.375 178.089844 C 190.644531 178.988281 190.875 179.894531 191.054688 180.816406 C 191.238281 181.734375 191.375 182.660156 191.46875 183.59375 C 191.558594 184.523438 191.605469 185.460938 191.605469 186.398438 Z M 191.605469 186.398438 " fill-opacity="1" fill-rule="nonzero"/><path fill="#faf7f7" d="M 302.703125 186.398438 C 302.703125 187.335938 302.65625 188.269531 302.566406 189.203125 C 302.472656 190.132812 302.335938 191.058594 302.152344 191.980469 C 301.96875 192.898438 301.742188 193.808594 301.46875 194.703125 C 301.199219 195.601562 300.882812 196.480469 300.523438 197.347656 C 300.164062 198.214844 299.765625 199.058594 299.324219 199.886719 C 298.882812 200.710938 298.402344 201.515625 297.878906 202.292969 C 297.359375 203.074219 296.800781 203.824219 296.207031 204.550781 C 295.613281 205.273438 294.984375 205.96875 294.320312 206.628906 C 293.65625 207.292969 292.964844 207.921875 292.238281 208.515625 C 291.515625 209.109375 290.761719 209.667969 289.984375 210.1875 C 289.203125 210.710938 288.402344 211.191406 287.574219 211.632812 C 286.75 212.074219 285.902344 212.472656 285.035156 212.832031 C 284.171875 213.191406 283.289062 213.507812 282.390625 213.777344 C 281.496094 214.050781 280.585938 214.277344 279.667969 214.460938 C 278.75 214.644531 277.824219 214.78125 276.890625 214.875 C 275.957031 214.964844 275.023438 215.011719 274.085938 215.011719 C 273.148438 215.011719 272.210938 214.964844 271.277344 214.875 C 270.347656 214.78125 269.421875 214.644531 268.5 214.460938 C 267.582031 214.277344 266.671875 214.050781 265.777344 213.777344 C 264.878906 213.507812 264 213.191406 263.132812 212.832031 C 262.265625 212.472656 261.421875 212.074219 260.59375 211.632812 C 259.765625 211.191406 258.964844 210.710938 258.183594 210.1875 C 257.40625 209.667969 256.652344 209.109375 255.929688 208.515625 C 255.203125 207.921875 254.511719 207.292969 253.847656 206.628906 C 253.183594 205.96875 252.554688 205.273438 251.960938 204.550781 C 251.367188 203.824219 250.808594 203.074219 250.289062 202.292969 C 249.769531 201.515625 249.285156 200.710938 248.84375 199.886719 C 248.402344 199.058594 248.003906 198.214844 247.644531 197.347656 C 247.285156 196.480469 246.96875 195.601562 246.699219 194.703125 C 246.425781 193.808594 246.199219 192.898438 246.015625 191.980469 C 245.832031 191.058594 245.695312 190.132812 245.605469 189.203125 C 245.511719 188.269531 245.464844 187.335938 245.464844 186.398438 C 245.464844 185.460938 245.511719 184.523438 245.605469 183.59375 C 245.695312 182.660156 245.832031 181.734375 246.015625 180.816406 C 246.199219 179.894531 246.425781 178.988281 246.699219 178.089844 C 246.96875 177.195312 247.285156 176.3125 247.644531 175.445312 C 248.003906 174.582031 248.402344 173.734375 248.84375 172.910156 C 249.285156 172.082031 249.769531 171.28125 250.289062 170.5 C 250.808594 169.722656 251.367188 168.96875 251.960938 168.246094 C 252.554688 167.519531 253.183594 166.828125 253.847656 166.164062 C 254.511719 165.5 255.203125 164.871094 255.929688 164.277344 C 256.652344 163.683594 257.40625 163.125 258.183594 162.605469 C 258.964844 162.085938 259.765625 161.605469 260.59375 161.164062 C 261.421875 160.71875 262.265625 160.320312 263.132812 159.960938 C 264 159.601562 264.878906 159.289062 265.777344 159.015625 C 266.671875 158.742188 267.582031 158.515625 268.5 158.332031 C 269.421875 158.152344 270.347656 158.011719 271.277344 157.921875 C 272.210938 157.828125 273.148438 157.785156 274.085938 157.785156 C 275.023438 157.785156 275.957031 157.828125 276.890625 157.921875 C 277.824219 158.011719 278.75 158.152344 279.667969 158.332031 C 280.585938 158.515625 281.496094 158.742188 282.390625 159.015625 C 283.289062 159.289062 284.171875 159.601562 285.035156 159.960938 C 285.902344 160.320312 286.75 160.71875 287.574219 161.164062 C 288.402344 161.605469 289.203125 162.085938 289.984375 162.605469 C 290.761719 163.125 291.515625 163.683594 292.238281 164.277344 C 292.964844 164.875 293.65625 165.5 294.320312 166.164062 C 294.984375 166.828125 295.613281 167.519531 296.207031 168.246094 C 296.800781 168.96875 297.359375 169.722656 297.878906 170.5 C 298.402344 171.28125 298.882812 172.082031 299.324219 172.910156 C 299.765625 173.734375 300.164062 174.582031 300.523438 175.445312 C 300.882812 176.3125 301.199219 177.195312 301.46875 178.089844 C 301.742188 178.988281 301.96875 179.894531 302.152344 180.816406 C 302.335938 181.734375 302.472656 182.660156 302.566406 183.59375 C 302.65625 184.523438 302.703125 185.460938 302.703125 186.398438 Z M 302.703125 186.398438 " fill-opacity="1" fill-rule="nonzero"/><path fill="#faf7f7" d="M 413.796875 186.398438 C 413.796875 187.335938 413.753906 188.269531 413.660156 189.203125 C 413.570312 190.132812 413.429688 191.058594 413.25 191.980469 C 413.066406 192.898438 412.839844 193.808594 412.566406 194.703125 C 412.292969 195.601562 411.980469 196.480469 411.621094 197.347656 C 411.261719 198.214844 410.859375 199.058594 410.417969 199.886719 C 409.976562 200.710938 409.496094 201.515625 408.976562 202.292969 C 408.453125 203.074219 407.898438 203.824219 407.300781 204.550781 C 406.707031 205.273438 406.078125 205.96875 405.417969 206.628906 C 404.753906 207.292969 404.058594 207.921875 403.335938 208.515625 C 402.609375 209.109375 401.859375 209.667969 401.078125 210.1875 C 400.300781 210.710938 399.496094 211.191406 398.671875 211.632812 C 397.84375 212.074219 396.996094 212.472656 396.132812 212.832031 C 395.265625 213.191406 394.382812 213.507812 393.488281 213.777344 C 392.589844 214.050781 391.683594 214.277344 390.761719 214.460938 C 389.84375 214.644531 388.917969 214.78125 387.984375 214.875 C 387.050781 214.964844 386.117188 215.011719 385.179688 215.011719 C 384.242188 215.011719 383.308594 214.964844 382.375 214.875 C 381.441406 214.78125 380.515625 214.644531 379.597656 214.460938 C 378.675781 214.277344 377.769531 214.050781 376.871094 213.777344 C 375.976562 213.507812 375.09375 213.191406 374.226562 212.832031 C 373.363281 212.472656 372.515625 212.074219 371.6875 211.632812 C 370.863281 211.191406 370.058594 210.710938 369.28125 210.1875 C 368.5 209.667969 367.75 209.109375 367.023438 208.515625 C 366.300781 207.921875 365.605469 207.292969 364.945312 206.628906 C 364.28125 205.96875 363.652344 205.273438 363.058594 204.550781 C 362.464844 203.824219 361.90625 203.074219 361.382812 202.292969 C 360.863281 201.515625 360.382812 200.710938 359.941406 199.886719 C 359.5 199.058594 359.097656 198.214844 358.738281 197.347656 C 358.382812 196.480469 358.066406 195.601562 357.792969 194.703125 C 357.523438 193.808594 357.292969 192.898438 357.113281 191.980469 C 356.929688 191.058594 356.792969 190.132812 356.699219 189.203125 C 356.605469 188.269531 356.5625 187.335938 356.5625 186.398438 C 356.5625 185.460938 356.605469 184.523438 356.699219 183.59375 C 356.792969 182.660156 356.929688 181.734375 357.113281 180.816406 C 357.292969 179.894531 357.523438 178.988281 357.792969 178.089844 C 358.066406 177.195312 358.382812 176.3125 358.738281 175.445312 C 359.097656 174.582031 359.5 173.734375 359.941406 172.910156 C 360.382812 172.082031 360.863281 171.28125 361.382812 170.5 C 361.90625 169.722656 362.464844 168.96875 363.058594 168.246094 C 363.652344 167.519531 364.28125 166.828125 364.945312 166.164062 C 365.605469 165.5 366.300781 164.871094 367.023438 164.277344 C 367.75 163.683594 368.5 163.125 369.28125 162.605469 C 370.058594 162.085938 370.863281 161.605469 371.6875 161.164062 C 372.515625 160.71875 373.363281 160.320312 374.226562 159.960938 C 375.09375 159.601562 375.976562 159.289062 376.871094 159.015625 C 377.769531 158.742188 378.675781 158.515625 379.597656 158.332031 C 380.515625 158.152344 381.441406 158.011719 382.375 157.921875 C 383.308594 157.828125 384.242188 157.785156 385.179688 157.785156 C 386.117188 157.785156 387.050781 157.828125 387.984375 157.921875 C 388.917969 158.011719 389.84375 158.152344 390.761719 158.332031 C 391.683594 158.515625 392.589844 158.742188 393.488281 159.015625 C 394.382812 159.289062 395.265625 159.601562 396.132812 159.960938 C 396.996094 160.320312 397.84375 160.71875 398.671875 161.164062 C 399.496094 161.605469 400.300781 162.085938 401.078125 162.605469 C 401.859375 163.125 402.609375 163.683594 403.335938 164.277344 C 404.058594 164.875 404.753906 165.5 405.417969 166.164062 C 406.078125 166.828125 406.707031 167.519531 407.300781 168.246094 C 407.898438 168.96875 408.453125 169.722656 408.976562 170.5 C 409.496094 171.28125 409.976562 172.082031 410.417969 172.910156 C 410.859375 173.734375 411.261719 174.582031 411.621094 175.445312 C 411.980469 176.3125 412.292969 177.195312 412.566406 178.089844 C 412.839844 178.988281 413.066406 179.894531 413.25 180.816406 C 413.429688 181.734375 413.570312 182.660156 413.660156 183.59375 C 413.753906 184.523438 413.796875 185.460938 413.796875 186.398438 Z M 413.796875 186.398438 " fill-opacity="1" fill-rule="nonzero"/><path fill="#faf7f7" d="M 524.894531 186.398438 C 524.894531 187.335938 524.851562 188.269531 524.757812 189.203125 C 524.667969 190.132812 524.527344 191.058594 524.347656 191.980469 C 524.164062 192.898438 523.933594 193.808594 523.664062 194.703125 C 523.390625 195.601562 523.074219 196.480469 522.71875 197.347656 C 522.359375 198.214844 521.957031 199.058594 521.515625 199.886719 C 521.074219 200.710938 520.59375 201.515625 520.074219 202.292969 C 519.550781 203.074219 518.996094 203.824219 518.398438 204.550781 C 517.804688 205.273438 517.175781 205.96875 516.511719 206.628906 C 515.851562 207.292969 515.15625 207.921875 514.433594 208.515625 C 513.707031 209.109375 512.957031 209.667969 512.175781 210.1875 C 511.398438 210.710938 510.59375 211.191406 509.769531 211.632812 C 508.941406 212.074219 508.09375 212.472656 507.230469 212.832031 C 506.363281 213.191406 505.480469 213.507812 504.585938 213.777344 C 503.6875 214.050781 502.78125 214.277344 501.859375 214.460938 C 500.941406 214.644531 500.015625 214.78125 499.082031 214.875 C 498.148438 214.964844 497.214844 215.011719 496.277344 215.011719 C 495.339844 215.011719 494.40625 214.964844 493.472656 214.875 C 492.539062 214.78125 491.613281 214.644531 490.695312 214.460938 C 489.773438 214.277344 488.867188 214.050781 487.96875 213.777344 C 487.074219 213.507812 486.191406 213.191406 485.324219 212.832031 C 484.460938 212.472656 483.613281 212.074219 482.785156 211.632812 C 481.960938 211.191406 481.15625 210.710938 480.378906 210.1875 C 479.597656 209.667969 478.847656 209.109375 478.121094 208.515625 C 477.398438 207.921875 476.703125 207.292969 476.039062 206.628906 C 475.378906 205.96875 474.75 205.273438 474.15625 204.550781 C 473.558594 203.824219 473.003906 203.074219 472.480469 202.292969 C 471.960938 201.515625 471.480469 200.710938 471.039062 199.886719 C 470.597656 199.058594 470.195312 198.214844 469.835938 197.347656 C 469.476562 196.480469 469.164062 195.601562 468.890625 194.703125 C 468.617188 193.808594 468.390625 192.898438 468.207031 191.980469 C 468.027344 191.058594 467.886719 190.132812 467.796875 189.203125 C 467.703125 188.269531 467.660156 187.335938 467.660156 186.398438 C 467.660156 185.460938 467.703125 184.523438 467.796875 183.59375 C 467.886719 182.660156 468.027344 181.734375 468.207031 180.816406 C 468.390625 179.894531 468.617188 178.988281 468.890625 178.089844 C 469.164062 177.195312 469.476562 176.3125 469.835938 175.445312 C 470.195312 174.582031 470.597656 173.734375 471.039062 172.910156 C 471.480469 172.082031 471.960938 171.28125 472.480469 170.5 C 473.003906 169.722656 473.558594 168.96875 474.15625 168.246094 C 474.75 167.519531 475.378906 166.828125 476.039062 166.164062 C 476.703125 165.5 477.398438 164.871094 478.121094 164.277344 C 478.847656 163.683594 479.597656 163.125 480.378906 162.605469 C 481.15625 162.085938 481.960938 161.605469 482.785156 161.164062 C 483.613281 160.71875 484.460938 160.320312 485.324219 159.960938 C 486.191406 159.601562 487.074219 159.289062 487.96875 159.015625 C 488.867188 158.742188 489.773438 158.515625 490.695312 158.332031 C 491.613281 158.152344 492.539062 158.011719 493.472656 157.921875 C 494.40625 157.828125 495.339844 157.785156 496.277344 157.785156 C 497.214844 157.785156 498.148438 157.828125 499.082031 157.921875 C 500.015625 158.011719 500.941406 158.152344 501.859375 158.332031 C 502.78125 158.515625 503.6875 158.742188 504.585938 159.015625 C 505.480469 159.289062 506.363281 159.601562 507.230469 159.960938 C 508.09375 160.320312 508.941406 160.71875 509.769531 161.164062 C 510.59375 161.605469 511.398438 162.085938 512.175781 162.605469 C 512.957031 163.125 513.707031 163.683594 514.433594 164.277344 C 515.15625 164.875 515.851562 165.5 516.511719 166.164062 C 517.175781 166.828125 517.804688 167.519531 518.398438 168.246094 C 518.996094 168.96875 519.550781 169.722656 520.074219 170.5 C 520.59375 171.28125 521.074219 172.082031 521.515625 172.910156 C 521.957031 173.734375 522.359375 174.582031 522.71875 175.445312 C 523.074219 176.3125 523.390625 177.195312 523.664062 178.089844 C 523.933594 178.988281 524.164062 179.894531 524.347656 180.816406 C 524.527344 181.734375 524.667969 182.660156 524.757812 183.59375 C 524.851562 184.523438 524.894531 185.460938 524.894531 186.398438 Z M 524.894531 186.398438 " fill-opacity="1" fill-rule="nonzero"/><path fill="#faf7f7" d="M 635.992188 186.398438 C 635.992188 187.335938 635.945312 188.269531 635.855469 189.203125 C 635.761719 190.132812 635.625 191.058594 635.441406 191.980469 C 635.261719 192.898438 635.03125 193.808594 634.761719 194.703125 C 634.488281 195.601562 634.171875 196.480469 633.8125 197.347656 C 633.457031 198.214844 633.054688 199.058594 632.613281 199.886719 C 632.171875 200.710938 631.691406 201.515625 631.167969 202.292969 C 630.648438 203.074219 630.089844 203.824219 629.496094 204.550781 C 628.902344 205.273438 628.273438 205.96875 627.609375 206.628906 C 626.949219 207.292969 626.253906 207.921875 625.53125 208.515625 C 624.804688 209.109375 624.054688 209.667969 623.273438 210.1875 C 622.496094 210.710938 621.691406 211.191406 620.863281 211.632812 C 620.039062 212.074219 619.191406 212.472656 618.324219 212.832031 C 617.460938 213.191406 616.578125 213.507812 615.683594 213.777344 C 614.785156 214.050781 613.875 214.277344 612.957031 214.460938 C 612.039062 214.644531 611.113281 214.78125 610.179688 214.875 C 609.246094 214.964844 608.3125 215.011719 607.375 215.011719 C 606.4375 215.011719 605.5 214.964844 604.570312 214.875 C 603.636719 214.78125 602.710938 214.644531 601.792969 214.460938 C 600.871094 214.277344 599.964844 214.050781 599.066406 213.777344 C 598.167969 213.507812 597.289062 213.191406 596.421875 212.832031 C 595.554688 212.472656 594.710938 212.074219 593.882812 211.632812 C 593.058594 211.191406 592.253906 210.710938 591.472656 210.1875 C 590.695312 209.667969 589.941406 209.109375 589.21875 208.515625 C 588.496094 207.921875 587.800781 207.292969 587.136719 206.628906 C 586.476562 205.96875 585.847656 205.273438 585.25 204.550781 C 584.65625 203.824219 584.097656 203.074219 583.578125 202.292969 C 583.058594 201.515625 582.578125 200.710938 582.136719 199.886719 C 581.691406 199.058594 581.292969 198.214844 580.933594 197.347656 C 580.574219 196.480469 580.261719 195.601562 579.988281 194.703125 C 579.714844 193.808594 579.488281 192.898438 579.304688 191.980469 C 579.121094 191.058594 578.984375 190.132812 578.894531 189.203125 C 578.800781 188.269531 578.753906 187.335938 578.753906 186.398438 C 578.753906 185.460938 578.800781 184.523438 578.894531 183.59375 C 578.984375 182.660156 579.121094 181.734375 579.304688 180.816406 C 579.488281 179.894531 579.714844 178.988281 579.988281 178.089844 C 580.261719 177.195312 580.574219 176.3125 580.933594 175.445312 C 581.292969 174.582031 581.691406 173.734375 582.136719 172.910156 C 582.578125 172.082031 583.058594 171.28125 583.578125 170.5 C 584.097656 169.722656 584.65625 168.96875 585.25 168.246094 C 585.847656 167.519531 586.476562 166.828125 587.136719 166.164062 C 587.800781 165.5 588.496094 164.871094 589.21875 164.277344 C 589.941406 163.683594 590.695312 163.125 591.472656 162.605469 C 592.253906 162.085938 593.058594 161.605469 593.882812 161.164062 C 594.710938 160.71875 595.554688 160.320312 596.421875 159.960938 C 597.289062 159.601562 598.167969 159.289062 599.066406 159.015625 C 599.964844 158.742188 600.871094 158.515625 601.792969 158.332031 C 602.710938 158.152344 603.636719 158.011719 604.570312 157.921875 C 605.5 157.828125 606.4375 157.785156 607.375 157.785156 C 608.3125 157.785156 609.246094 157.828125 610.179688 157.921875 C 611.113281 158.011719 612.039062 158.152344 612.957031 158.332031 C 613.875 158.515625 614.785156 158.742188 615.683594 159.015625 C 616.578125 159.289062 617.460938 159.601562 618.324219 159.960938 C 619.191406 160.320312 620.039062 160.71875 620.863281 161.164062 C 621.691406 161.605469 622.496094 162.085938 623.273438 162.605469 C 624.054688 163.125 624.804688 163.683594 625.53125 164.277344 C 626.253906 164.875 626.949219 165.5 627.609375 166.164062 C 628.273438 166.828125 628.902344 167.519531 629.496094 168.246094 C 630.089844 168.96875 630.648438 169.722656 631.167969 170.5 C 631.691406 171.28125 632.171875 172.082031 632.613281 172.910156 C 633.054688 173.734375 633.457031 174.582031 633.8125 175.445312 C 634.171875 176.3125 634.488281 177.195312 634.761719 178.089844 C 635.03125 178.988281 635.261719 179.894531 635.441406 180.816406 C 635.625 181.734375 635.761719 182.660156 635.855469 183.59375 C 635.945312 184.523438 635.992188 185.460938 635.992188 186.398438 Z M 635.992188 186.398438 " fill-opacity="1" fill-rule="nonzero"/><path fill="#faf7f7" d="M 191.605469 291.054688 C 191.605469 291.992188 191.558594 292.925781 191.46875 293.859375 C 191.375 294.792969 191.238281 295.71875 191.054688 296.636719 C 190.875 297.554688 190.644531 298.464844 190.375 299.359375 C 190.101562 300.257812 189.785156 301.136719 189.425781 302.003906 C 189.070312 302.871094 188.667969 303.714844 188.226562 304.542969 C 187.785156 305.367188 187.304688 306.171875 186.78125 306.949219 C 186.261719 307.730469 185.703125 308.480469 185.109375 309.207031 C 184.515625 309.929688 183.886719 310.625 183.222656 311.285156 C 182.5625 311.949219 181.867188 312.578125 181.144531 313.171875 C 180.417969 313.765625 179.667969 314.324219 178.886719 314.84375 C 178.109375 315.367188 177.304688 315.847656 176.476562 316.289062 C 175.652344 316.730469 174.804688 317.132812 173.9375 317.488281 C 173.074219 317.847656 172.191406 318.164062 171.292969 318.4375 C 170.398438 318.707031 169.488281 318.933594 168.570312 319.117188 C 167.652344 319.300781 166.726562 319.4375 165.792969 319.53125 C 164.859375 319.621094 163.925781 319.667969 162.988281 319.667969 C 162.050781 319.667969 161.113281 319.621094 160.183594 319.53125 C 159.25 319.4375 158.324219 319.300781 157.402344 319.117188 C 156.484375 318.933594 155.578125 318.707031 154.679688 318.4375 C 153.78125 318.164062 152.902344 317.847656 152.035156 317.488281 C 151.167969 317.132812 150.324219 316.730469 149.496094 316.289062 C 148.671875 315.847656 147.867188 315.367188 147.085938 314.84375 C 146.308594 314.324219 145.554688 313.765625 144.832031 313.171875 C 144.105469 312.578125 143.414062 311.949219 142.75 311.285156 C 142.089844 310.625 141.460938 309.929688 140.863281 309.207031 C 140.269531 308.480469 139.710938 307.730469 139.191406 306.949219 C 138.671875 306.171875 138.191406 305.367188 137.746094 304.542969 C 137.304688 303.714844 136.90625 302.871094 136.546875 302.003906 C 136.1875 301.136719 135.875 300.257812 135.601562 299.359375 C 135.328125 298.464844 135.101562 297.554688 134.917969 296.636719 C 134.734375 295.71875 134.597656 294.792969 134.507812 293.859375 C 134.414062 292.925781 134.367188 291.992188 134.367188 291.054688 C 134.367188 290.117188 134.414062 289.183594 134.507812 288.25 C 134.597656 287.316406 134.734375 286.390625 134.917969 285.472656 C 135.101562 284.550781 135.328125 283.644531 135.601562 282.746094 C 135.875 281.851562 136.1875 280.96875 136.546875 280.105469 C 136.90625 279.238281 137.304688 278.390625 137.746094 277.566406 C 138.191406 276.738281 138.671875 275.9375 139.191406 275.15625 C 139.710938 274.378906 140.269531 273.625 140.863281 272.902344 C 141.460938 272.175781 142.089844 271.484375 142.75 270.820312 C 143.414062 270.160156 144.105469 269.53125 144.832031 268.933594 C 145.554688 268.339844 146.308594 267.78125 147.085938 267.261719 C 147.867188 266.742188 148.671875 266.261719 149.496094 265.820312 C 150.324219 265.378906 151.167969 264.976562 152.035156 264.617188 C 152.902344 264.257812 153.78125 263.945312 154.679688 263.671875 C 155.578125 263.398438 156.484375 263.171875 157.402344 262.988281 C 158.324219 262.808594 159.25 262.667969 160.183594 262.578125 C 161.113281 262.484375 162.050781 262.441406 162.988281 262.441406 C 163.925781 262.441406 164.859375 262.484375 165.792969 262.578125 C 166.726562 262.667969 167.652344 262.808594 168.570312 262.988281 C 169.488281 263.171875 170.398438 263.398438 171.292969 263.671875 C 172.191406 263.945312 173.074219 264.257812 173.9375 264.617188 C 174.804688 264.976562 175.652344 265.378906 176.476562 265.820312 C 177.304688 266.261719 178.109375 266.742188 178.886719 267.261719 C 179.667969 267.78125 180.417969 268.339844 181.144531 268.933594 C 181.867188 269.53125 182.5625 270.160156 183.222656 270.820312 C 183.886719 271.484375 184.515625 272.175781 185.109375 272.902344 C 185.703125 273.625 186.261719 274.378906 186.78125 275.15625 C 187.304688 275.9375 187.785156 276.738281 188.226562 277.566406 C 188.667969 278.390625 189.070312 279.238281 189.425781 280.105469 C 189.785156 280.96875 190.101562 281.851562 190.375 282.746094 C 190.644531 283.644531 190.875 284.550781 191.054688 285.472656 C 191.238281 286.390625 191.375 287.316406 191.46875 288.25 C 191.558594 289.183594 191.605469 290.117188 191.605469 291.054688 Z M 191.605469 291.054688 " fill-opacity="1" fill-rule="nonzero"/><path fill="#faf7f7" d="M 302.703125 291.054688 C 302.703125 291.992188 302.65625 292.925781 302.566406 293.859375 C 302.472656 294.792969 302.335938 295.71875 302.152344 296.636719 C 301.96875 297.554688 301.742188 298.464844 301.46875 299.359375 C 301.199219 300.257812 300.882812 301.136719 300.523438 302.003906 C 300.164062 302.871094 299.765625 303.714844 299.324219 304.542969 C 298.882812 305.367188 298.402344 306.171875 297.878906 306.949219 C 297.359375 307.730469 296.800781 308.480469 296.207031 309.207031 C 295.613281 309.929688 294.984375 310.625 294.320312 311.285156 C 293.65625 311.949219 292.964844 312.578125 292.238281 313.171875 C 291.515625 313.765625 290.761719 314.324219 289.984375 314.84375 C 289.203125 315.367188 288.402344 315.847656 287.574219 316.289062 C 286.75 316.730469 285.902344 317.132812 285.035156 317.488281 C 284.171875 317.847656 283.289062 318.164062 282.390625 318.4375 C 281.496094 318.707031 280.585938 318.933594 279.667969 319.117188 C 278.75 319.300781 277.824219 319.4375 276.890625 319.53125 C 275.957031 319.621094 275.023438 319.667969 274.085938 319.667969 C 273.148438 319.667969 272.210938 319.621094 271.277344 319.53125 C 270.347656 319.4375 269.421875 319.300781 268.5 319.117188 C 267.582031 318.933594 266.671875 318.707031 265.777344 318.4375 C 264.878906 318.164062 264 317.847656 263.132812 317.488281 C 262.265625 317.132812 261.421875 316.730469 260.59375 316.289062 C 259.765625 315.847656 258.964844 315.367188 258.183594 314.84375 C 257.40625 314.324219 256.652344 313.765625 255.929688 313.171875 C 255.203125 312.578125 254.511719 311.949219 253.847656 311.285156 C 253.183594 310.625 252.554688 309.929688 251.960938 309.207031 C 251.367188 308.480469 250.808594 307.730469 250.289062 306.949219 C 249.769531 306.171875 249.285156 305.367188 248.84375 304.542969 C 248.402344 303.714844 248.003906 302.871094 247.644531 302.003906 C 247.285156 301.136719 246.96875 300.257812 246.699219 299.359375 C 246.425781 298.464844 246.199219 297.554688 246.015625 296.636719 C 245.832031 295.71875 245.695312 294.792969 245.605469 293.859375 C 245.511719 292.925781 245.464844 291.992188 245.464844 291.054688 C 245.464844 290.117188 245.511719 289.183594 245.605469 288.25 C 245.695312 287.316406 245.832031 286.390625 246.015625 285.472656 C 246.199219 284.550781 246.425781 283.644531 246.699219 282.746094 C 246.96875 281.851562 247.285156 280.96875 247.644531 280.105469 C 248.003906 279.238281 248.402344 278.390625 248.84375 277.566406 C 249.285156 276.738281 249.769531 275.9375 250.289062 275.15625 C 250.808594 274.378906 251.367188 273.625 251.960938 272.902344 C 252.554688 272.175781 253.183594 271.484375 253.847656 270.820312 C 254.511719 270.160156 255.203125 269.53125 255.929688 268.933594 C 256.652344 268.339844 257.40625 267.78125 258.183594 267.261719 C 258.964844 266.742188 259.765625 266.261719 260.59375 265.820312 C 261.421875 265.378906 262.265625 264.976562 263.132812 264.617188 C 264 264.257812 264.878906 263.945312 265.777344 263.671875 C 266.671875 263.398438 267.582031 263.171875 268.5 262.988281 C 269.421875 262.808594 270.347656 262.667969 271.277344 262.578125 C 272.210938 262.484375 273.148438 262.441406 274.085938 262.441406 C 275.023438 262.441406 275.957031 262.484375 276.890625 262.578125 C 277.824219 262.667969 278.75 262.808594 279.667969 262.988281 C 280.585938 263.171875 281.496094 263.398438 282.390625 263.671875 C 283.289062 263.945312 284.171875 264.257812 285.035156 264.617188 C 285.902344 264.976562 286.75 265.378906 287.574219 265.820312 C 288.402344 266.261719 289.203125 266.742188 289.984375 267.261719 C 290.761719 267.78125 291.515625 268.339844 292.238281 268.933594 C 292.964844 269.53125 293.65625 270.160156 294.320312 270.820312 C 294.984375 271.484375 295.613281 272.175781 296.207031 272.902344 C 296.800781 273.625 297.359375 274.378906 297.878906 275.15625 C 298.402344 275.9375 298.882812 276.738281 299.324219 277.566406 C 299.765625 278.390625 300.164062 279.238281 300.523438 280.105469 C 300.882812 280.96875 301.199219 281.851562 301.46875 282.746094 C 301.742188 283.644531 301.96875 284.550781 302.152344 285.472656 C 302.335938 286.390625 302.472656 287.316406 302.566406 288.25 C 302.65625 289.183594 302.703125 290.117188 302.703125 291.054688 Z M 302.703125 291.054688 " fill-opacity="1" fill-rule="nonzero"/><path fill="#faf7f7" d="M 413.796875 291.054688 C 413.796875 291.992188 413.753906 292.925781 413.660156 293.859375 C 413.570312 294.792969 413.429688 295.71875 413.25 296.636719 C 413.066406 297.554688 412.839844 298.464844 412.566406 299.359375 C 412.292969 300.257812 411.980469 301.136719 411.621094 302.003906 C 411.261719 302.871094 410.859375 303.714844 410.417969 304.542969 C 409.976562 305.367188 409.496094 306.171875 408.976562 306.949219 C 408.453125 307.730469 407.898438 308.480469 407.300781 309.207031 C 406.707031 309.929688 406.078125 310.625 405.417969 311.285156 C 404.753906 311.949219 404.058594 312.578125 403.335938 313.171875 C 402.609375 313.765625 401.859375 314.324219 401.078125 314.84375 C 400.300781 315.367188 399.496094 315.847656 398.671875 316.289062 C 397.84375 316.730469 396.996094 317.132812 396.132812 317.488281 C 395.265625 317.847656 394.382812 318.164062 393.488281 318.4375 C 392.589844 318.707031 391.683594 318.933594 390.761719 319.117188 C 389.84375 319.300781 388.917969 319.4375 387.984375 319.53125 C 387.050781 319.621094 386.117188 319.667969 385.179688 319.667969 C 384.242188 319.667969 383.308594 319.621094 382.375 319.53125 C 381.441406 319.4375 380.515625 319.300781 379.597656 319.117188 C 378.675781 318.933594 377.769531 318.707031 376.871094 318.4375 C 375.976562 318.164062 375.09375 317.847656 374.226562 317.488281 C 373.363281 317.132812 372.515625 316.730469 371.6875 316.289062 C 370.863281 315.847656 370.058594 315.367188 369.28125 314.84375 C 368.5 314.324219 367.75 313.765625 367.023438 313.171875 C 366.300781 312.578125 365.605469 311.949219 364.945312 311.285156 C 364.28125 310.625 363.652344 309.929688 363.058594 309.207031 C 362.464844 308.480469 361.90625 307.730469 361.382812 306.949219 C 360.863281 306.171875 360.382812 305.367188 359.941406 304.542969 C 359.5 303.714844 359.097656 302.871094 358.738281 302.003906 C 358.382812 301.136719 358.066406 300.257812 357.792969 299.359375 C 357.523438 298.464844 357.292969 297.554688 357.113281 296.636719 C 356.929688 295.71875 356.792969 294.792969 356.699219 293.859375 C 356.605469 292.925781 356.5625 291.992188 356.5625 291.054688 C 356.5625 290.117188 356.605469 289.183594 356.699219 288.25 C 356.792969 287.316406 356.929688 286.390625 357.113281 285.472656 C 357.292969 284.550781 357.523438 283.644531 357.792969 282.746094 C 358.066406 281.851562 358.382812 280.96875 358.738281 280.105469 C 359.097656 279.238281 359.5 278.390625 359.941406 277.566406 C 360.382812 276.738281 360.863281 275.9375 361.382812 275.15625 C 361.90625 274.378906 362.464844 273.625 363.058594 272.902344 C 363.652344 272.175781 364.28125 271.484375 364.945312 270.820312 C 365.605469 270.160156 366.300781 269.53125 367.023438 268.933594 C 367.75 268.339844 368.5 267.78125 369.28125 267.261719 C 370.058594 266.742188 370.863281 266.261719 371.6875 265.820312 C 372.515625 265.378906 373.363281 264.976562 374.226562 264.617188 C 375.09375 264.257812 375.976562 263.945312 376.871094 263.671875 C 377.769531 263.398438 378.675781 263.171875 379.597656 262.988281 C 380.515625 262.808594 381.441406 262.667969 382.375 262.578125 C 383.308594 262.484375 384.242188 262.441406 385.179688 262.441406 C 386.117188 262.441406 387.050781 262.484375 387.984375 262.578125 C 388.917969 262.667969 389.84375 262.808594 390.761719 262.988281 C 391.683594 263.171875 392.589844 263.398438 393.488281 263.671875 C 394.382812 263.945312 395.265625 264.257812 396.132812 264.617188 C 396.996094 264.976562 397.84375 265.378906 398.671875 265.820312 C 399.496094 266.261719 400.300781 266.742188 401.078125 267.261719 C 401.859375 267.78125 402.609375 268.339844 403.335938 268.933594 C 404.058594 269.53125 404.753906 270.160156 405.417969 270.820312 C 406.078125 271.484375 406.707031 272.175781 407.300781 272.902344 C 407.898438 273.625 408.453125 274.378906 408.976562 275.15625 C 409.496094 275.9375 409.976562 276.738281 410.417969 277.566406 C 410.859375 278.390625 411.261719 279.238281 411.621094 280.105469 C 411.980469 280.96875 412.292969 281.851562 412.566406 282.746094 C 412.839844 283.644531 413.066406 284.550781 413.25 285.472656 C 413.429688 286.390625 413.570312 287.316406 413.660156 288.25 C 413.753906 289.183594 413.796875 290.117188 413.796875 291.054688 Z M 413.796875 291.054688 " fill-opacity="1" fill-rule="nonzero"/><path fill="#fef0ae" d="M 524.894531 291.054688 C 524.894531 291.992188 524.851562 292.925781 524.757812 293.859375 C 524.667969 294.792969 524.527344 295.71875 524.347656 296.636719 C 524.164062 297.554688 523.933594 298.464844 523.664062 299.359375 C 523.390625 300.257812 523.074219 301.136719 522.71875 302.003906 C 522.359375 302.871094 521.957031 303.714844 521.515625 304.542969 C 521.074219 305.367188 520.59375 306.171875 520.074219 306.949219 C 519.550781 307.730469 518.996094 308.480469 518.398438 309.207031 C 517.804688 309.929688 517.175781 310.625 516.511719 311.285156 C 515.851562 311.949219 515.15625 312.578125 514.433594 313.171875 C 513.707031 313.765625 512.957031 314.324219 512.175781 314.84375 C 511.398438 315.367188 510.59375 315.847656 509.769531 316.289062 C 508.941406 316.730469 508.09375 317.132812 507.230469 317.488281 C 506.363281 317.847656 505.480469 318.164062 504.585938 318.4375 C 503.6875 318.707031 502.78125 318.933594 501.859375 319.117188 C 500.941406 319.300781 500.015625 319.4375 499.082031 319.53125 C 498.148438 319.621094 497.214844 319.667969 496.277344 319.667969 C 495.339844 319.667969 494.40625 319.621094 493.472656 319.53125 C 492.539062 319.4375 491.613281 319.300781 490.695312 319.117188 C 489.773438 318.933594 488.867188 318.707031 487.96875 318.4375 C 487.074219 318.164062 486.191406 317.847656 485.324219 317.488281 C 484.460938 317.132812 483.613281 316.730469 482.785156 316.289062 C 481.960938 315.847656 481.15625 315.367188 480.378906 314.84375 C 479.597656 314.324219 478.847656 313.765625 478.121094 313.171875 C 477.398438 312.578125 476.703125 311.949219 476.039062 311.285156 C 475.378906 310.625 474.75 309.929688 474.15625 309.207031 C 473.558594 308.480469 473.003906 307.730469 472.480469 306.949219 C 471.960938 306.171875 471.480469 305.367188 471.039062 304.542969 C 470.597656 303.714844 470.195312 302.871094 469.835938 302.003906 C 469.476562 301.136719 469.164062 300.257812 468.890625 299.359375 C 468.617188 298.464844 468.390625 297.554688 468.207031 296.636719 C 468.027344 295.71875 467.886719 294.792969 467.796875 293.859375 C 467.703125 292.925781 467.660156 291.992188 467.660156 291.054688 C 467.660156 290.117188 467.703125 289.183594 467.796875 288.25 C 467.886719 287.316406 468.027344 286.390625 468.207031 285.472656 C 468.390625 284.550781 468.617188 283.644531 468.890625 282.746094 C 469.164062 281.851562 469.476562 280.96875 469.835938 280.105469 C 470.195312 279.238281 470.597656 278.390625 471.039062 277.566406 C 471.480469 276.738281 471.960938 275.9375 472.480469 275.15625 C 473.003906 274.378906 473.558594 273.625 474.15625 272.902344 C 474.75 272.175781 475.378906 271.484375 476.039062 270.820312 C 476.703125 270.160156 477.398438 269.53125 478.121094 268.933594 C 478.847656 268.339844 479.597656 267.78125 480.378906 267.261719 C 481.15625 266.742188 481.960938 266.261719 482.785156 265.820312 C 483.613281 265.378906 484.460938 264.976562 485.324219 264.617188 C 486.191406 264.257812 487.074219 263.945312 487.96875 263.671875 C 488.867188 263.398438 489.773438 263.171875 490.695312 262.988281 C 491.613281 262.808594 492.539062 262.667969 493.472656 262.578125 C 494.40625 262.484375 495.339844 262.441406 496.277344 262.441406 C 497.214844 262.441406 498.148438 262.484375 499.082031 262.578125 C 500.015625 262.667969 500.941406 262.808594 501.859375 262.988281 C 502.78125 263.171875 503.6875 263.398438 504.585938 263.671875 C 505.480469 263.945312 506.363281 264.257812 507.230469 264.617188 C 508.09375 264.976562 508.941406 265.378906 509.769531 265.820312 C 510.59375 266.261719 511.398438 266.742188 512.175781 267.261719 C 512.957031 267.78125 513.707031 268.339844 514.433594 268.933594 C 515.15625 269.53125 515.851562 270.160156 516.511719 270.820312 C 517.175781 271.484375 517.804688 272.175781 518.398438 272.902344 C 518.996094 273.625 519.550781 274.378906 520.074219 275.15625 C 520.59375 275.9375 521.074219 276.738281 521.515625 277.566406 C 521.957031 278.390625 522.359375 279.238281 522.71875 280.105469 C 523.074219 280.96875 523.390625 281.851562 523.664062 282.746094 C 523.933594 283.644531 524.164062 284.550781 524.347656 285.472656 C 524.527344 286.390625 524.667969 287.316406 524.757812 288.25 C 524.851562 289.183594 524.894531 290.117188 524.894531 291.054688 Z M 524.894531 291.054688 " fill-opacity="1" fill-rule="nonzero"/><path fill="#faf7f7" d="M 635.992188 291.054688 C 635.992188 291.992188 635.945312 292.925781 635.855469 293.859375 C 635.761719 294.792969 635.625 295.71875 635.441406 296.636719 C 635.261719 297.554688 635.03125 298.464844 634.761719 299.359375 C 634.488281 300.257812 634.171875 301.136719 633.8125 302.003906 C 633.457031 302.871094 633.054688 303.714844 632.613281 304.542969 C 632.171875 305.367188 631.691406 306.171875 631.167969 306.949219 C 630.648438 307.730469 630.089844 308.480469 629.496094 309.207031 C 628.902344 309.929688 628.273438 310.625 627.609375 311.285156 C 626.949219 311.949219 626.253906 312.578125 625.53125 313.171875 C 624.804688 313.765625 624.054688 314.324219 623.273438 314.84375 C 622.496094 315.367188 621.691406 315.847656 620.863281 316.289062 C 620.039062 316.730469 619.191406 317.132812 618.324219 317.488281 C 617.460938 317.847656 616.578125 318.164062 615.683594 318.4375 C 614.785156 318.707031 613.875 318.933594 612.957031 319.117188 C 612.039062 319.300781 611.113281 319.4375 610.179688 319.53125 C 609.246094 319.621094 608.3125 319.667969 607.375 319.667969 C 606.4375 319.667969 605.5 319.621094 604.570312 319.53125 C 603.636719 319.4375 602.710938 319.300781 601.792969 319.117188 C 600.871094 318.933594 599.964844 318.707031 599.066406 318.4375 C 598.167969 318.164062 597.289062 317.847656 596.421875 317.488281 C 595.554688 317.132812 594.710938 316.730469 593.882812 316.289062 C 593.058594 315.847656 592.253906 315.367188 591.472656 314.84375 C 590.695312 314.324219 589.941406 313.765625 589.21875 313.171875 C 588.496094 312.578125 587.800781 311.949219 587.136719 311.285156 C 586.476562 310.625 585.847656 309.929688 585.25 309.207031 C 584.65625 308.480469 584.097656 307.730469 583.578125 306.949219 C 583.058594 306.171875 582.578125 305.367188 582.136719 304.542969 C 581.691406 303.714844 581.292969 302.871094 580.933594 302.003906 C 580.574219 301.136719 580.261719 300.257812 579.988281 299.359375 C 579.714844 298.464844 579.488281 297.554688 579.304688 296.636719 C 579.121094 295.71875 578.984375 294.792969 578.894531 293.859375 C 578.800781 292.925781 578.753906 291.992188 578.753906 291.054688 C 578.753906 290.117188 578.800781 289.183594 578.894531 288.25 C 578.984375 287.316406 579.121094 286.390625 579.304688 285.472656 C 579.488281 284.550781 579.714844 283.644531 579.988281 282.746094 C 580.261719 281.851562 580.574219 280.96875 580.933594 280.105469 C 581.292969 279.238281 581.691406 278.390625 582.136719 277.566406 C 582.578125 276.738281 583.058594 275.9375 583.578125 275.15625 C 584.097656 274.378906 584.65625 273.625 585.25 272.902344 C 585.847656 272.175781 586.476562 271.484375 587.136719 270.820312 C 587.800781 270.160156 588.496094 269.53125 589.21875 268.933594 C 589.941406 268.339844 590.695312 267.78125 591.472656 267.261719 C 592.253906 266.742188 593.058594 266.261719 593.882812 265.820312 C 594.710938 265.378906 595.554688 264.976562 596.421875 264.617188 C 597.289062 264.257812 598.167969 263.945312 599.066406 263.671875 C 599.964844 263.398438 600.871094 263.171875 601.792969 262.988281 C 602.710938 262.808594 603.636719 262.667969 604.570312 262.578125 C 605.5 262.484375 606.4375 262.441406 607.375 262.441406 C 608.3125 262.441406 609.246094 262.484375 610.179688 262.578125 C 611.113281 262.667969 612.039062 262.808594 612.957031 262.988281 C 613.875 263.171875 614.785156 263.398438 615.683594 263.671875 C 616.578125 263.945312 617.460938 264.257812 618.324219 264.617188 C 619.191406 264.976562 620.039062 265.378906 620.863281 265.820312 C 621.691406 266.261719 622.496094 266.742188 623.273438 267.261719 C 624.054688 267.78125 624.804688 268.339844 625.53125 268.933594 C 626.253906 269.53125 626.949219 270.160156 627.609375 270.820312 C 628.273438 271.484375 628.902344 272.175781 629.496094 272.902344 C 630.089844 273.625 630.648438 274.378906 631.167969 275.15625 C 631.691406 275.9375 632.171875 276.738281 632.613281 277.566406 C 633.054688 278.390625 633.457031 279.238281 633.8125 280.105469 C 634.171875 280.96875 634.488281 281.851562 634.761719 282.746094 C 635.03125 283.644531 635.261719 284.550781 635.441406 285.472656 C 635.625 286.390625 635.761719 287.316406 635.855469 288.25 C 635.945312 289.183594 635.992188 290.117188 635.992188 291.054688 Z M 635.992188 291.054688 " fill-opacity="1" fill-rule="nonzero"/><path fill="#faf7f7" d="M 183.167969 375.457031 C 183.832031 376.117188 184.460938 376.8125 185.054688 377.535156 C 185.648438 378.261719 186.207031 379.011719 186.726562 379.789062 C 187.25 380.570312 187.730469 381.371094 188.171875 382.199219 C 188.613281 383.023438 189.011719 383.871094 189.371094 384.738281 C 189.730469 385.601562 190.046875 386.484375 190.316406 387.378906 C 190.589844 388.277344 190.816406 389.183594 191 390.105469 C 191.183594 391.023438 191.320312 391.949219 191.414062 392.882812 C 191.503906 393.8125 191.550781 394.75 191.550781 395.683594 C 191.550781 396.621094 191.503906 397.558594 191.414062 398.488281 C 191.320312 399.421875 191.183594 400.347656 191 401.265625 C 190.816406 402.1875 190.589844 403.09375 190.316406 403.988281 C 190.046875 404.886719 189.730469 405.769531 189.371094 406.632812 C 189.011719 407.5 188.613281 408.34375 188.171875 409.171875 C 187.730469 409.996094 187.25 410.800781 186.726562 411.578125 C 186.207031 412.359375 185.648438 413.109375 185.054688 413.835938 C 184.460938 414.558594 183.832031 415.253906 183.167969 415.914062 C 182.507812 416.578125 181.8125 417.207031 181.089844 417.800781 C 180.363281 418.394531 179.613281 418.953125 178.832031 419.472656 C 178.054688 419.992188 177.25 420.476562 176.425781 420.917969 C 175.597656 421.359375 174.753906 421.757812 173.886719 422.117188 C 173.019531 422.476562 172.140625 422.789062 171.242188 423.0625 C 170.34375 423.335938 169.4375 423.5625 168.519531 423.746094 C 167.597656 423.929688 166.671875 424.066406 165.742188 424.15625 C 164.808594 424.25 163.875 424.292969 162.9375 424.292969 C 162 424.292969 161.0625 424.25 160.132812 424.15625 C 159.199219 424.066406 158.273438 423.929688 157.355469 423.746094 C 156.433594 423.5625 155.527344 423.335938 154.628906 423.0625 C 153.734375 422.789062 152.851562 422.476562 151.984375 422.117188 C 151.121094 421.757812 150.273438 421.359375 149.449219 420.917969 C 148.621094 420.476562 147.816406 419.992188 147.039062 419.472656 C 146.257812 418.953125 145.507812 418.394531 144.785156 417.800781 C 144.058594 417.207031 143.367188 416.578125 142.703125 415.914062 C 142.039062 415.253906 141.410156 414.558594 140.816406 413.835938 C 140.222656 413.109375 139.664062 412.359375 139.144531 411.578125 C 138.625 410.800781 138.140625 409.996094 137.699219 409.171875 C 137.257812 408.34375 136.859375 407.5 136.5 406.632812 C 136.140625 405.769531 135.824219 404.886719 135.554688 403.988281 C 135.28125 403.09375 135.054688 402.1875 134.871094 401.265625 C 134.6875 400.347656 134.550781 399.421875 134.460938 398.488281 C 134.367188 397.558594 134.320312 396.621094 134.320312 395.683594 C 134.320312 394.75 134.367188 393.8125 134.460938 392.882812 C 134.550781 391.949219 134.6875 391.023438 134.871094 390.105469 C 135.054688 389.183594 135.28125 388.277344 135.554688 387.378906 C 135.824219 386.484375 136.140625 385.601562 136.5 384.738281 C 136.859375 383.871094 137.257812 383.023438 137.699219 382.199219 C 138.140625 381.371094 138.625 380.570312 139.144531 379.789062 C 139.664062 379.011719 140.222656 378.261719 140.816406 377.535156 C 141.410156 376.8125 142.039062 376.117188 142.703125 375.457031 C 143.367188 374.792969 144.058594 374.164062 144.785156 373.570312 C 145.507812 372.976562 146.257812 372.417969 147.039062 371.898438 C 147.816406 371.375 148.621094 370.894531 149.449219 370.453125 C 150.273438 370.011719 151.121094 369.613281 151.984375 369.253906 C 152.851562 368.894531 153.734375 368.578125 154.628906 368.308594 C 155.527344 368.035156 156.433594 367.808594 157.355469 367.625 C 158.273438 367.441406 159.199219 367.304688 160.132812 367.214844 C 161.0625 367.121094 162 367.074219 162.9375 367.074219 C 163.875 367.074219 164.808594 367.121094 165.742188 367.214844 C 166.671875 367.304688 167.597656 367.441406 168.519531 367.625 C 169.4375 367.808594 170.34375 368.035156 171.242188 368.308594 C 172.140625 368.578125 173.019531 368.894531 173.886719 369.253906 C 174.753906 369.613281 175.597656 370.011719 176.425781 370.453125 C 177.25 370.894531 178.054688 371.375 178.832031 371.898438 C 179.613281 372.417969 180.363281 372.976562 181.089844 373.570312 C 181.8125 374.164062 182.507812 374.792969 183.167969 375.457031 Z M 183.167969 375.457031 " fill-opacity="1" fill-rule="nonzero"/><path fill="#fef0ae" d="M 294.253906 375.464844 C 294.914062 376.128906 295.542969 376.820312 296.140625 377.546875 C 296.734375 378.269531 297.289062 379.023438 297.8125 379.800781 C 298.332031 380.582031 298.8125 381.382812 299.253906 382.210938 C 299.695312 383.035156 300.097656 383.882812 300.457031 384.746094 C 300.816406 385.613281 301.128906 386.496094 301.402344 387.390625 C 301.675781 388.289062 301.902344 389.195312 302.085938 390.113281 C 302.265625 391.035156 302.40625 391.960938 302.496094 392.890625 C 302.589844 393.824219 302.632812 394.757812 302.632812 395.695312 C 302.632812 396.632812 302.589844 397.566406 302.496094 398.5 C 302.40625 399.433594 302.265625 400.359375 302.085938 401.277344 C 301.902344 402.195312 301.675781 403.105469 301.402344 404 C 301.128906 404.898438 300.816406 405.777344 300.457031 406.644531 C 300.097656 407.511719 299.695312 408.355469 299.253906 409.183594 C 298.8125 410.007812 298.332031 410.8125 297.8125 411.589844 C 297.292969 412.371094 296.734375 413.121094 296.140625 413.84375 C 295.542969 414.570312 294.914062 415.261719 294.253906 415.925781 C 293.589844 416.589844 292.898438 417.214844 292.171875 417.8125 C 291.449219 418.40625 290.695312 418.964844 289.917969 419.484375 C 289.136719 420.003906 288.335938 420.484375 287.507812 420.925781 C 286.683594 421.367188 285.835938 421.769531 284.96875 422.128906 C 284.105469 422.484375 283.222656 422.800781 282.324219 423.074219 C 281.429688 423.34375 280.519531 423.574219 279.601562 423.753906 C 278.683594 423.9375 277.757812 424.074219 276.824219 424.167969 C 275.890625 424.257812 274.957031 424.304688 274.019531 424.304688 C 273.082031 424.304688 272.148438 424.257812 271.214844 424.167969 C 270.28125 424.074219 269.355469 423.9375 268.4375 423.753906 C 267.519531 423.574219 266.609375 423.34375 265.714844 423.074219 C 264.816406 422.800781 263.933594 422.484375 263.070312 422.128906 C 262.203125 421.769531 261.359375 421.367188 260.53125 420.925781 C 259.703125 420.484375 258.902344 420.003906 258.121094 419.484375 C 257.34375 418.964844 256.589844 418.40625 255.867188 417.8125 C 255.144531 417.214844 254.449219 416.589844 253.785156 415.925781 C 253.125 415.261719 252.496094 414.570312 251.902344 413.84375 C 251.304688 413.121094 250.75 412.371094 250.226562 411.589844 C 249.707031 410.8125 249.226562 410.007812 248.785156 409.183594 C 248.34375 408.355469 247.941406 407.511719 247.582031 406.644531 C 247.226562 405.777344 246.910156 404.898438 246.636719 404 C 246.367188 403.105469 246.136719 402.195312 245.957031 401.277344 C 245.773438 400.359375 245.636719 399.433594 245.542969 398.5 C 245.453125 397.566406 245.40625 396.632812 245.40625 395.695312 C 245.40625 394.757812 245.453125 393.824219 245.542969 392.890625 C 245.636719 391.960938 245.773438 391.035156 245.957031 390.113281 C 246.136719 389.195312 246.367188 388.289062 246.636719 387.390625 C 246.910156 386.496094 247.226562 385.613281 247.582031 384.746094 C 247.941406 383.882812 248.34375 383.035156 248.785156 382.210938 C 249.226562 381.382812 249.707031 380.582031 250.226562 379.800781 C 250.75 379.023438 251.304688 378.269531 251.902344 377.546875 C 252.496094 376.820312 253.125 376.128906 253.785156 375.464844 C 254.449219 374.804688 255.144531 374.175781 255.867188 373.582031 C 256.589844 372.984375 257.34375 372.429688 258.121094 371.90625 C 258.902344 371.386719 259.703125 370.90625 260.53125 370.464844 C 261.359375 370.023438 262.203125 369.621094 263.070312 369.265625 C 263.933594 368.90625 264.816406 368.589844 265.714844 368.316406 C 266.609375 368.046875 267.519531 367.820312 268.4375 367.636719 C 269.355469 367.453125 270.28125 367.316406 271.214844 367.222656 C 272.148438 367.132812 273.082031 367.085938 274.019531 367.085938 C 274.957031 367.085938 275.890625 367.132812 276.824219 367.222656 C 277.757812 367.316406 278.683594 367.453125 279.601562 367.636719 C 280.519531 367.820312 281.429688 368.046875 282.324219 368.316406 C 283.222656 368.589844 284.105469 368.90625 284.96875 369.265625 C 285.835938 369.621094 286.683594 370.023438 287.507812 370.464844 C 288.335938 370.90625 289.136719 371.386719 289.917969 371.90625 C 290.695312 372.429688 291.449219 372.984375 292.171875 373.582031 C 292.898438 374.175781 293.589844 374.804688 294.253906 375.464844 Z M 294.253906 375.464844 " fill-opacity="1" fill-rule="nonzero"/><path fill="#fe76a8" d="M 391.757812 368.042969 C 392.671875 368.257812 393.570312 368.519531 394.457031 368.824219 C 395.34375 369.128906 396.214844 369.472656 397.066406 369.863281 C 397.917969 370.253906 398.75 370.683594 399.558594 371.152344 C 400.371094 371.625 401.15625 372.132812 401.914062 372.683594 C 402.675781 373.230469 403.40625 373.8125 404.109375 374.433594 C 404.8125 375.054688 405.480469 375.707031 406.121094 376.390625 C 406.757812 377.078125 407.363281 377.792969 407.929688 378.539062 C 408.5 379.285156 409.027344 380.054688 409.519531 380.851562 C 410.015625 381.648438 410.464844 382.46875 410.878906 383.308594 C 411.289062 384.152344 411.660156 385.011719 411.988281 385.890625 C 412.316406 386.765625 412.597656 387.660156 412.835938 388.566406 C 413.078125 389.472656 413.273438 390.386719 413.421875 391.3125 C 413.570312 392.234375 413.675781 393.167969 413.734375 394.101562 C 413.792969 395.035156 413.804688 395.972656 413.773438 396.910156 C 413.738281 397.84375 413.660156 398.777344 413.535156 399.707031 C 413.410156 400.632812 413.238281 401.554688 413.023438 402.464844 C 412.808594 403.378906 412.546875 404.277344 412.242188 405.164062 C 411.941406 406.050781 411.59375 406.917969 411.203125 407.773438 C 410.8125 408.625 410.382812 409.453125 409.914062 410.265625 C 409.441406 411.074219 408.933594 411.859375 408.382812 412.621094 C 407.835938 413.378906 407.253906 414.109375 406.632812 414.8125 C 406.011719 415.515625 405.359375 416.1875 404.671875 416.824219 C 403.988281 417.464844 403.273438 418.066406 402.527344 418.636719 C 401.78125 419.203125 401.011719 419.734375 400.210938 420.226562 C 399.414062 420.71875 398.597656 421.171875 397.753906 421.582031 C 396.914062 421.992188 396.050781 422.363281 395.175781 422.691406 C 394.296875 423.019531 393.40625 423.300781 392.5 423.542969 C 391.59375 423.78125 390.675781 423.976562 389.753906 424.125 C 388.828125 424.277344 387.898438 424.378906 386.960938 424.4375 C 386.027344 424.496094 385.089844 424.507812 384.152344 424.476562 C 383.21875 424.441406 382.285156 424.363281 381.355469 424.238281 C 380.425781 424.113281 379.507812 423.941406 378.59375 423.726562 C 377.683594 423.511719 376.785156 423.25 375.898438 422.949219 C 375.011719 422.644531 374.140625 422.296875 373.289062 421.90625 C 372.4375 421.519531 371.605469 421.089844 370.796875 420.617188 C 369.984375 420.144531 369.199219 419.636719 368.441406 419.089844 C 367.679688 418.539062 366.949219 417.957031 366.246094 417.335938 C 365.542969 416.714844 364.871094 416.0625 364.234375 415.378906 C 363.59375 414.691406 362.992188 413.976562 362.421875 413.230469 C 361.855469 412.488281 361.324219 411.714844 360.832031 410.917969 C 360.339844 410.121094 359.886719 409.300781 359.476562 408.460938 C 359.0625 407.617188 358.695312 406.757812 358.367188 405.882812 C 358.039062 405.003906 357.757812 404.109375 357.515625 403.207031 C 357.277344 402.300781 357.082031 401.382812 356.933594 400.460938 C 356.78125 399.535156 356.679688 398.605469 356.621094 397.667969 C 356.5625 396.734375 356.546875 395.796875 356.582031 394.863281 C 356.617188 393.925781 356.695312 392.992188 356.820312 392.066406 C 356.945312 391.136719 357.117188 390.214844 357.332031 389.304688 C 357.546875 388.390625 357.804688 387.492188 358.109375 386.605469 C 358.414062 385.71875 358.761719 384.851562 359.148438 384 C 359.539062 383.148438 359.96875 382.316406 360.441406 381.503906 C 360.910156 380.695312 361.421875 379.910156 361.96875 379.152344 C 362.519531 378.390625 363.101562 377.660156 363.722656 376.957031 C 364.34375 376.253906 364.996094 375.582031 365.679688 374.945312 C 366.367188 374.308594 367.082031 373.703125 367.828125 373.136719 C 368.574219 372.566406 369.34375 372.039062 370.140625 371.546875 C 370.9375 371.050781 371.757812 370.601562 372.601562 370.1875 C 373.441406 369.777344 374.300781 369.40625 375.179688 369.078125 C 376.058594 368.753906 376.949219 368.46875 377.855469 368.230469 C 378.761719 367.988281 379.675781 367.792969 380.601562 367.644531 C 381.527344 367.496094 382.457031 367.390625 383.394531 367.332031 C 384.328125 367.273438 385.265625 367.261719 386.199219 367.296875 C 387.136719 367.328125 388.070312 367.40625 389 367.53125 C 389.925781 367.65625 390.847656 367.828125 391.757812 368.042969 Z M 391.757812 368.042969 " fill-opacity="1" fill-rule="nonzero"/><path fill="#fe76a8" d="M 516.421875 375.492188 C 517.085938 376.152344 517.714844 376.847656 518.308594 377.570312 C 518.902344 378.296875 519.460938 379.046875 519.980469 379.824219 C 520.5 380.605469 520.984375 381.40625 521.425781 382.234375 C 521.867188 383.0625 522.265625 383.90625 522.625 384.773438 C 522.984375 385.636719 523.300781 386.519531 523.570312 387.414062 C 523.84375 388.3125 524.070312 389.21875 524.253906 390.140625 C 524.4375 391.058594 524.574219 391.984375 524.664062 392.917969 C 524.757812 393.847656 524.804688 394.785156 524.804688 395.71875 C 524.804688 396.65625 524.757812 397.59375 524.664062 398.523438 C 524.574219 399.457031 524.4375 400.382812 524.253906 401.300781 C 524.070312 402.222656 523.84375 403.128906 523.570312 404.027344 C 523.300781 404.921875 522.984375 405.804688 522.625 406.667969 C 522.265625 407.535156 521.867188 408.378906 521.425781 409.207031 C 520.984375 410.035156 520.5 410.835938 519.980469 411.617188 C 519.460938 412.394531 518.902344 413.144531 518.308594 413.871094 C 517.714844 414.59375 517.085938 415.289062 516.421875 415.949219 C 515.757812 416.613281 515.066406 417.242188 514.339844 417.835938 C 513.617188 418.429688 512.867188 418.988281 512.085938 419.507812 C 511.308594 420.027344 510.503906 420.511719 509.675781 420.953125 C 508.851562 421.394531 508.003906 421.792969 507.140625 422.152344 C 506.273438 422.511719 505.390625 422.828125 504.496094 423.097656 C 503.597656 423.371094 502.691406 423.597656 501.769531 423.78125 C 500.851562 423.964844 499.925781 424.101562 498.992188 424.191406 C 498.0625 424.285156 497.125 424.332031 496.1875 424.332031 C 495.25 424.332031 494.316406 424.285156 493.382812 424.191406 C 492.453125 424.101562 491.527344 423.964844 490.605469 423.78125 C 489.6875 423.597656 488.78125 423.371094 487.882812 423.097656 C 486.984375 422.828125 486.105469 422.511719 485.238281 422.152344 C 484.371094 421.792969 483.527344 421.394531 482.699219 420.953125 C 481.875 420.511719 481.070312 420.027344 480.292969 419.507812 C 479.511719 418.988281 478.761719 418.429688 478.035156 417.835938 C 477.3125 417.242188 476.617188 416.613281 475.957031 415.949219 C 475.292969 415.289062 474.664062 414.59375 474.070312 413.871094 C 473.476562 413.144531 472.917969 412.394531 472.398438 411.617188 C 471.875 410.835938 471.394531 410.035156 470.953125 409.207031 C 470.511719 408.378906 470.113281 407.535156 469.753906 406.667969 C 469.394531 405.804688 469.078125 404.921875 468.808594 404.027344 C 468.535156 403.128906 468.308594 402.222656 468.125 401.300781 C 467.941406 400.382812 467.804688 399.457031 467.710938 398.523438 C 467.621094 397.59375 467.574219 396.65625 467.574219 395.71875 C 467.574219 394.785156 467.621094 393.847656 467.710938 392.917969 C 467.804688 391.984375 467.941406 391.058594 468.125 390.140625 C 468.308594 389.21875 468.535156 388.3125 468.808594 387.414062 C 469.078125 386.519531 469.394531 385.636719 469.753906 384.773438 C 470.113281 383.90625 470.511719 383.0625 470.953125 382.234375 C 471.394531 381.40625 471.875 380.605469 472.398438 379.824219 C 472.917969 379.046875 473.476562 378.296875 474.070312 377.570312 C 474.664062 376.847656 475.292969 376.152344 475.957031 375.492188 C 476.617188 374.828125 477.3125 374.199219 478.035156 373.605469 C 478.761719 373.011719 479.511719 372.453125 480.292969 371.933594 C 481.070312 371.414062 481.875 370.929688 482.699219 370.488281 C 483.527344 370.046875 484.371094 369.648438 485.238281 369.289062 C 486.105469 368.929688 486.984375 368.613281 487.882812 368.34375 C 488.78125 368.070312 489.6875 367.84375 490.605469 367.660156 C 491.527344 367.476562 492.453125 367.339844 493.382812 367.25 C 494.316406 367.15625 495.25 367.109375 496.1875 367.109375 C 497.125 367.109375 498.0625 367.15625 498.992188 367.25 C 499.925781 367.339844 500.851562 367.476562 501.769531 367.660156 C 502.691406 367.84375 503.597656 368.070312 504.496094 368.34375 C 505.390625 368.613281 506.273438 368.929688 507.140625 369.289062 C 508.003906 369.648438 508.851562 370.046875 509.675781 370.488281 C 510.503906 370.929688 511.308594 371.414062 512.085938 371.933594 C 512.867188 372.453125 513.617188 373.011719 514.339844 373.605469 C 515.066406 374.199219 515.757812 374.828125 516.421875 375.492188 Z M 516.421875 375.492188 " fill-opacity="1" fill-rule="nonzero"/><path fill="#fe93bb" d="M 611.816406 367.453125 C 612.742188 367.601562 613.65625 367.796875 614.5625 368.035156 C 615.46875 368.277344 616.359375 368.558594 617.238281 368.886719 C 618.117188 369.214844 618.976562 369.585938 619.820312 369.996094 C 620.660156 370.410156 621.480469 370.863281 622.277344 371.355469 C 623.074219 371.847656 623.847656 372.375 624.589844 372.945312 C 625.335938 373.511719 626.050781 374.117188 626.738281 374.753906 C 627.425781 375.394531 628.078125 376.066406 628.695312 376.765625 C 629.316406 377.46875 629.902344 378.203125 630.449219 378.960938 C 630.996094 379.722656 631.507812 380.507812 631.976562 381.316406 C 632.449219 382.125 632.878906 382.957031 633.269531 383.808594 C 633.65625 384.664062 634.003906 385.53125 634.308594 386.417969 C 634.613281 387.304688 634.871094 388.203125 635.085938 389.117188 C 635.300781 390.027344 635.472656 390.949219 635.597656 391.875 C 635.722656 392.804688 635.800781 393.738281 635.835938 394.675781 C 635.867188 395.609375 635.855469 396.546875 635.796875 397.480469 C 635.738281 398.417969 635.632812 399.347656 635.484375 400.273438 C 635.335938 401.195312 635.140625 402.113281 634.898438 403.019531 C 634.660156 403.925781 634.375 404.816406 634.046875 405.695312 C 633.71875 406.570312 633.351562 407.429688 632.9375 408.273438 C 632.527344 409.113281 632.074219 409.933594 631.582031 410.730469 C 631.089844 411.527344 630.558594 412.300781 629.992188 413.042969 C 629.421875 413.789062 628.820312 414.503906 628.179688 415.191406 C 627.542969 415.875 626.871094 416.53125 626.167969 417.148438 C 625.464844 417.769531 624.734375 418.351562 623.972656 418.902344 C 623.214844 419.449219 622.429688 419.957031 621.617188 420.429688 C 620.808594 420.902344 619.976562 421.332031 619.125 421.71875 C 618.269531 422.109375 617.402344 422.457031 616.515625 422.757812 C 615.628906 423.0625 614.730469 423.324219 613.816406 423.539062 C 612.90625 423.753906 611.984375 423.921875 611.054688 424.046875 C 610.125 424.171875 609.195312 424.253906 608.257812 424.285156 C 607.320312 424.320312 606.386719 424.308594 605.449219 424.25 C 604.515625 424.191406 603.582031 424.085938 602.660156 423.9375 C 601.734375 423.785156 600.816406 423.589844 599.914062 423.351562 C 599.007812 423.109375 598.113281 422.828125 597.234375 422.5 C 596.359375 422.171875 595.5 421.804688 594.65625 421.390625 C 593.816406 420.980469 592.996094 420.527344 592.199219 420.035156 C 591.402344 419.542969 590.628906 419.011719 589.882812 418.441406 C 589.140625 417.875 588.421875 417.269531 587.738281 416.632812 C 587.050781 415.996094 586.398438 415.324219 585.777344 414.621094 C 585.160156 413.917969 584.574219 413.1875 584.027344 412.425781 C 583.476562 411.667969 582.96875 410.882812 582.496094 410.070312 C 582.027344 409.261719 581.597656 408.429688 581.207031 407.578125 C 580.820312 406.726562 580.472656 405.855469 580.167969 404.96875 C 579.863281 404.082031 579.605469 403.183594 579.390625 402.273438 C 579.171875 401.359375 579.003906 400.441406 578.878906 399.511719 C 578.753906 398.582031 578.675781 397.648438 578.640625 396.714844 C 578.605469 395.777344 578.621094 394.839844 578.679688 393.90625 C 578.738281 392.972656 578.839844 392.039062 578.992188 391.117188 C 579.140625 390.191406 579.335938 389.277344 579.574219 388.371094 C 579.816406 387.464844 580.101562 386.570312 580.425781 385.695312 C 580.753906 384.816406 581.125 383.957031 581.535156 383.113281 C 581.949219 382.273438 582.402344 381.453125 582.894531 380.65625 C 583.386719 379.859375 583.917969 379.089844 584.484375 378.34375 C 585.054688 377.597656 585.65625 376.882812 586.296875 376.195312 C 586.933594 375.511719 587.605469 374.859375 588.308594 374.238281 C 589.011719 373.617188 589.742188 373.035156 590.503906 372.488281 C 591.261719 371.9375 592.046875 371.429688 592.859375 370.957031 C 593.667969 370.488281 594.5 370.058594 595.351562 369.667969 C 596.203125 369.277344 597.074219 368.933594 597.960938 368.628906 C 598.847656 368.324219 599.746094 368.066406 600.660156 367.851562 C 601.570312 367.632812 602.492188 367.464844 603.421875 367.339844 C 604.347656 367.214844 605.28125 367.136719 606.21875 367.101562 C 607.15625 367.066406 608.089844 367.082031 609.027344 367.140625 C 609.960938 367.199219 610.890625 367.300781 611.816406 367.453125 Z M 611.816406 367.453125 " fill-opacity="1" fill-rule="nonzero"/><path fill="#fef0ae" d="M 169.484375 472.671875 C 170.398438 472.886719 171.296875 473.144531 172.183594 473.449219 C 173.070312 473.753906 173.941406 474.101562 174.792969 474.488281 C 175.644531 474.878906 176.476562 475.308594 177.285156 475.78125 C 178.097656 476.25 178.882812 476.761719 179.640625 477.308594 C 180.402344 477.855469 181.132812 478.441406 181.835938 479.058594 C 182.539062 479.679688 183.207031 480.332031 183.847656 481.019531 C 184.484375 481.703125 185.089844 482.421875 185.65625 483.164062 C 186.226562 483.910156 186.757812 484.679688 187.25 485.476562 C 187.742188 486.277344 188.191406 487.09375 188.605469 487.9375 C 189.015625 488.777344 189.386719 489.636719 189.714844 490.515625 C 190.042969 491.394531 190.324219 492.285156 190.566406 493.191406 C 190.804688 494.097656 191 495.011719 191.148438 495.9375 C 191.300781 496.863281 191.402344 497.792969 191.460938 498.726562 C 191.519531 499.664062 191.53125 500.597656 191.5 501.535156 C 191.464844 502.472656 191.386719 503.402344 191.261719 504.332031 C 191.136719 505.261719 190.964844 506.179688 190.75 507.09375 C 190.535156 508.003906 190.273438 508.902344 189.96875 509.789062 C 189.667969 510.675781 189.320312 511.546875 188.929688 512.398438 C 188.542969 513.25 188.109375 514.082031 187.640625 514.890625 C 187.167969 515.703125 186.660156 516.484375 186.109375 517.246094 C 185.5625 518.007812 184.980469 518.738281 184.359375 519.441406 C 183.738281 520.140625 183.085938 520.8125 182.398438 521.453125 C 181.714844 522.089844 181 522.691406 180.253906 523.261719 C 179.507812 523.828125 178.738281 524.359375 177.941406 524.851562 C 177.140625 525.34375 176.324219 525.796875 175.480469 526.207031 C 174.640625 526.621094 173.78125 526.988281 172.902344 527.316406 C 172.023438 527.644531 171.132812 527.929688 170.226562 528.167969 C 169.320312 528.40625 168.402344 528.601562 167.480469 528.753906 C 166.554688 528.902344 165.625 529.007812 164.6875 529.0625 C 163.753906 529.121094 162.816406 529.136719 161.878906 529.101562 C 160.945312 529.066406 160.011719 528.988281 159.082031 528.863281 C 158.152344 528.738281 157.234375 528.570312 156.320312 528.351562 C 155.410156 528.136719 154.511719 527.878906 153.625 527.574219 C 152.738281 527.269531 151.867188 526.921875 151.015625 526.535156 C 150.164062 526.144531 149.332031 525.714844 148.523438 525.242188 C 147.710938 524.773438 146.925781 524.261719 146.167969 523.714844 C 145.40625 523.167969 144.675781 522.582031 143.972656 521.964844 C 143.269531 521.34375 142.597656 520.691406 141.960938 520.003906 C 141.320312 519.320312 140.71875 518.601562 140.152344 517.859375 C 139.582031 517.113281 139.050781 516.34375 138.558594 515.542969 C 138.066406 514.746094 137.613281 513.929688 137.203125 513.085938 C 136.792969 512.246094 136.421875 511.386719 136.09375 510.507812 C 135.765625 509.628906 135.484375 508.738281 135.242188 507.832031 C 135.003906 506.925781 134.808594 506.011719 134.660156 505.085938 C 134.507812 504.160156 134.40625 503.230469 134.347656 502.296875 C 134.289062 501.359375 134.277344 500.425781 134.308594 499.488281 C 134.34375 498.550781 134.421875 497.621094 134.546875 496.691406 C 134.671875 495.761719 134.84375 494.84375 135.058594 493.929688 C 135.273438 493.019531 135.535156 492.121094 135.835938 491.234375 C 136.140625 490.347656 136.488281 489.476562 136.878906 488.625 C 137.265625 487.773438 137.695312 486.941406 138.167969 486.132812 C 138.640625 485.320312 139.148438 484.535156 139.695312 483.777344 C 140.246094 483.015625 140.828125 482.285156 141.449219 481.582031 C 142.070312 480.878906 142.722656 480.210938 143.40625 479.570312 C 144.09375 478.933594 144.808594 478.332031 145.554688 477.761719 C 146.300781 477.195312 147.070312 476.664062 147.867188 476.171875 C 148.664062 475.679688 149.484375 475.226562 150.328125 474.816406 C 151.167969 474.402344 152.027344 474.035156 152.90625 473.707031 C 153.785156 473.378906 154.675781 473.09375 155.582031 472.855469 C 156.488281 472.617188 157.402344 472.421875 158.328125 472.269531 C 159.253906 472.121094 160.183594 472.015625 161.121094 471.957031 C 162.054688 471.898438 162.992188 471.886719 163.925781 471.921875 C 164.863281 471.953125 165.796875 472.035156 166.726562 472.160156 C 167.652344 472.285156 168.574219 472.453125 169.484375 472.671875 Z M 169.484375 472.671875 " fill-opacity="1" fill-rule="nonzero"/><path fill="#faf7f7" d="M 280.609375 472.699219 C 281.523438 472.914062 282.421875 473.171875 283.308594 473.476562 C 284.195312 473.78125 285.0625 474.128906 285.914062 474.515625 C 286.769531 474.90625 287.601562 475.335938 288.410156 475.808594 C 289.21875 476.277344 290.003906 476.789062 290.765625 477.335938 C 291.523438 477.882812 292.257812 478.46875 292.960938 479.089844 C 293.660156 479.707031 294.332031 480.359375 294.972656 481.046875 C 295.609375 481.734375 296.214844 482.449219 296.78125 483.191406 C 297.347656 483.9375 297.878906 484.710938 298.371094 485.507812 C 298.863281 486.304688 299.316406 487.121094 299.730469 487.964844 C 300.140625 488.804688 300.511719 489.664062 300.835938 490.542969 C 301.164062 491.421875 301.449219 492.3125 301.6875 493.21875 C 301.929688 494.125 302.121094 495.039062 302.273438 495.964844 C 302.421875 496.890625 302.527344 497.820312 302.585938 498.753906 C 302.644531 499.691406 302.65625 500.625 302.621094 501.5625 C 302.589844 502.5 302.511719 503.429688 302.382812 504.359375 C 302.257812 505.289062 302.089844 506.207031 301.875 507.121094 C 301.65625 508.03125 301.398438 508.929688 301.09375 509.816406 C 300.789062 510.703125 300.445312 511.574219 300.054688 512.425781 C 299.664062 513.277344 299.234375 514.109375 298.765625 514.917969 C 298.292969 515.730469 297.78125 516.515625 297.234375 517.273438 C 296.6875 518.035156 296.101562 518.765625 295.484375 519.46875 C 294.863281 520.171875 294.210938 520.839844 293.523438 521.480469 C 292.839844 522.117188 292.121094 522.722656 291.378906 523.289062 C 290.632812 523.855469 289.859375 524.386719 289.0625 524.878906 C 288.265625 525.371094 287.445312 525.824219 286.605469 526.234375 C 285.761719 526.648438 284.902344 527.019531 284.023438 527.34375 C 283.148438 527.671875 282.253906 527.957031 281.347656 528.195312 C 280.441406 528.433594 279.527344 528.628906 278.601562 528.78125 C 277.675781 528.929688 276.746094 529.035156 275.8125 529.09375 C 274.875 529.152344 273.941406 529.164062 273.003906 529.128906 C 272.066406 529.097656 271.136719 529.015625 270.207031 528.890625 C 269.277344 528.765625 268.355469 528.597656 267.445312 528.378906 C 266.535156 528.164062 265.632812 527.90625 264.746094 527.601562 C 263.859375 527.296875 262.992188 526.949219 262.140625 526.5625 C 261.285156 526.171875 260.457031 525.742188 259.644531 525.273438 C 258.835938 524.800781 258.050781 524.292969 257.289062 523.742188 C 256.53125 523.195312 255.796875 522.609375 255.097656 521.992188 C 254.394531 521.371094 253.722656 520.71875 253.085938 520.03125 C 252.445312 519.347656 251.84375 518.632812 251.273438 517.886719 C 250.707031 517.140625 250.175781 516.371094 249.683594 515.574219 C 249.191406 514.777344 248.738281 513.957031 248.328125 513.113281 C 247.914062 512.273438 247.546875 511.414062 247.21875 510.535156 C 246.890625 509.65625 246.605469 508.765625 246.367188 507.859375 C 246.128906 506.953125 245.933594 506.039062 245.78125 505.113281 C 245.632812 504.1875 245.527344 503.257812 245.46875 502.324219 C 245.410156 501.386719 245.398438 500.453125 245.433594 499.515625 C 245.464844 498.578125 245.546875 497.648438 245.671875 496.71875 C 245.796875 495.789062 245.964844 494.871094 246.183594 493.957031 C 246.398438 493.046875 246.65625 492.148438 246.960938 491.261719 C 247.265625 490.375 247.613281 489.503906 248 488.652344 C 248.390625 487.800781 248.820312 486.96875 249.292969 486.160156 C 249.761719 485.351562 250.273438 484.566406 250.820312 483.804688 C 251.367188 483.046875 251.953125 482.3125 252.574219 481.609375 C 253.191406 480.910156 253.84375 480.238281 254.53125 479.601562 C 255.21875 478.960938 255.933594 478.359375 256.679688 477.789062 C 257.421875 477.222656 258.195312 476.691406 258.992188 476.199219 C 259.789062 475.707031 260.609375 475.253906 261.449219 474.84375 C 262.292969 474.429688 263.152344 474.0625 264.03125 473.734375 C 264.910156 473.40625 265.800781 473.125 266.707031 472.882812 C 267.613281 472.644531 268.527344 472.449219 269.453125 472.300781 C 270.378906 472.148438 271.308594 472.046875 272.242188 471.988281 C 273.179688 471.929688 274.113281 471.914062 275.050781 471.949219 C 275.988281 471.984375 276.921875 472.0625 277.847656 472.1875 C 278.777344 472.3125 279.699219 472.484375 280.609375 472.699219 Z M 280.609375 472.699219 " fill-opacity="1" fill-rule="nonzero"/><path fill="#fef0ae" d="M 405.328125 480.125 C 405.988281 480.785156 406.617188 481.480469 407.210938 482.203125 C 407.808594 482.929688 408.363281 483.679688 408.886719 484.460938 C 409.40625 485.238281 409.886719 486.039062 410.328125 486.867188 C 410.769531 487.695312 411.171875 488.539062 411.53125 489.40625 C 411.886719 490.269531 412.203125 491.152344 412.476562 492.046875 C 412.746094 492.945312 412.976562 493.851562 413.15625 494.773438 C 413.339844 495.691406 413.476562 496.617188 413.570312 497.550781 C 413.660156 498.480469 413.707031 499.417969 413.707031 500.355469 C 413.707031 501.289062 413.660156 502.226562 413.570312 503.15625 C 413.476562 504.089844 413.339844 505.015625 413.15625 505.933594 C 412.976562 506.855469 412.746094 507.761719 412.476562 508.660156 C 412.203125 509.554688 411.886719 510.4375 411.53125 511.300781 C 411.171875 512.167969 410.769531 513.015625 410.328125 513.839844 C 409.886719 514.667969 409.40625 515.46875 408.886719 516.25 C 408.363281 517.027344 407.808594 517.777344 407.210938 518.503906 C 406.617188 519.226562 405.988281 519.921875 405.328125 520.582031 C 404.664062 521.246094 403.972656 521.875 403.246094 522.46875 C 402.523438 523.0625 401.769531 523.621094 400.992188 524.140625 C 400.210938 524.660156 399.410156 525.144531 398.582031 525.585938 C 397.753906 526.027344 396.910156 526.425781 396.042969 526.785156 C 395.179688 527.144531 394.296875 527.460938 393.398438 527.730469 C 392.503906 528.003906 391.59375 528.230469 390.675781 528.414062 C 389.757812 528.597656 388.832031 528.734375 387.898438 528.824219 C 386.964844 528.917969 386.03125 528.964844 385.09375 528.964844 C 384.15625 528.964844 383.222656 528.917969 382.289062 528.824219 C 381.355469 528.734375 380.429688 528.597656 379.511719 528.414062 C 378.59375 528.230469 377.683594 528.003906 376.789062 527.730469 C 375.890625 527.460938 375.007812 527.144531 374.144531 526.785156 C 373.277344 526.425781 372.429688 526.027344 371.605469 525.585938 C 370.777344 525.144531 369.976562 524.660156 369.195312 524.140625 C 368.417969 523.621094 367.664062 523.0625 366.941406 522.46875 C 366.214844 521.875 365.523438 521.246094 364.859375 520.582031 C 364.199219 519.921875 363.570312 519.226562 362.972656 518.503906 C 362.378906 517.777344 361.824219 517.027344 361.300781 516.25 C 360.78125 515.46875 360.300781 514.667969 359.859375 513.839844 C 359.417969 513.011719 359.015625 512.167969 358.65625 511.300781 C 358.296875 510.4375 357.984375 509.554688 357.710938 508.660156 C 357.4375 507.761719 357.210938 506.855469 357.027344 505.933594 C 356.847656 505.015625 356.707031 504.089844 356.617188 503.15625 C 356.523438 502.226562 356.480469 501.289062 356.480469 500.355469 C 356.480469 499.417969 356.523438 498.480469 356.617188 497.550781 C 356.707031 496.617188 356.847656 495.691406 357.027344 494.773438 C 357.210938 493.851562 357.4375 492.945312 357.710938 492.046875 C 357.984375 491.152344 358.296875 490.269531 358.65625 489.40625 C 359.015625 488.539062 359.417969 487.695312 359.859375 486.867188 C 360.300781 486.039062 360.78125 485.238281 361.300781 484.460938 C 361.824219 483.679688 362.378906 482.929688 362.972656 482.203125 C 363.570312 481.480469 364.199219 480.785156 364.859375 480.125 C 365.523438 479.460938 366.214844 478.832031 366.941406 478.238281 C 367.664062 477.644531 368.417969 477.085938 369.195312 476.566406 C 369.976562 476.046875 370.777344 475.5625 371.605469 475.121094 C 372.429688 474.679688 373.277344 474.28125 374.144531 473.921875 C 375.007812 473.5625 375.890625 473.25 376.789062 472.976562 C 377.683594 472.703125 378.59375 472.476562 379.511719 472.292969 C 380.429688 472.109375 381.355469 471.972656 382.289062 471.882812 C 383.222656 471.789062 384.15625 471.746094 385.09375 471.746094 C 386.03125 471.742188 386.964844 471.789062 387.898438 471.882812 C 388.832031 471.972656 389.757812 472.109375 390.675781 472.292969 C 391.59375 472.476562 392.503906 472.703125 393.398438 472.976562 C 394.296875 473.25 395.179688 473.5625 396.042969 473.921875 C 396.910156 474.28125 397.753906 474.679688 398.582031 475.121094 C 399.410156 475.5625 400.210938 476.046875 400.992188 476.566406 C 401.769531 477.085938 402.523438 477.644531 403.246094 478.238281 C 403.96875 478.832031 404.664062 479.460938 405.328125 480.125 Z M 405.328125 480.125 " fill-opacity="1" fill-rule="nonzero"/><path fill="#fef0ae" d="M 502.855469 472.753906 C 503.769531 472.96875 504.667969 473.226562 505.554688 473.53125 C 506.441406 473.835938 507.3125 474.183594 508.164062 474.570312 C 509.015625 474.960938 509.847656 475.390625 510.65625 475.863281 C 511.46875 476.332031 512.253906 476.84375 513.011719 477.390625 C 513.773438 477.9375 514.503906 478.523438 515.207031 479.140625 C 515.910156 479.761719 516.578125 480.414062 517.21875 481.101562 C 517.855469 481.785156 518.460938 482.503906 519.027344 483.246094 C 519.597656 483.992188 520.125 484.761719 520.621094 485.5625 C 521.113281 486.359375 521.5625 487.175781 521.976562 488.019531 C 522.386719 488.859375 522.757812 489.71875 523.085938 490.597656 C 523.414062 491.476562 523.695312 492.367188 523.9375 493.273438 C 524.175781 494.179688 524.371094 495.09375 524.519531 496.019531 C 524.667969 496.945312 524.773438 497.875 524.832031 498.808594 C 524.890625 499.746094 524.902344 500.679688 524.871094 501.617188 C 524.835938 502.554688 524.757812 503.484375 524.632812 504.414062 C 524.507812 505.34375 524.335938 506.261719 524.121094 507.175781 C 523.90625 508.085938 523.644531 508.984375 523.339844 509.871094 C 523.039062 510.757812 522.691406 511.628906 522.300781 512.480469 C 521.914062 513.332031 521.480469 514.164062 521.011719 514.972656 C 520.539062 515.785156 520.03125 516.570312 519.480469 517.328125 C 518.933594 518.089844 518.351562 518.820312 517.730469 519.523438 C 517.109375 520.226562 516.457031 520.894531 515.769531 521.535156 C 515.085938 522.171875 514.371094 522.773438 513.625 523.34375 C 512.878906 523.910156 512.109375 524.441406 511.3125 524.933594 C 510.511719 525.425781 509.695312 525.878906 508.851562 526.289062 C 508.011719 526.703125 507.148438 527.070312 506.273438 527.398438 C 505.394531 527.726562 504.503906 528.011719 503.597656 528.25 C 502.691406 528.488281 501.773438 528.683594 500.851562 528.835938 C 499.925781 528.984375 498.996094 529.089844 498.058594 529.148438 C 497.125 529.207031 496.1875 529.21875 495.25 529.183594 C 494.316406 529.152344 493.382812 529.070312 492.453125 528.945312 C 491.523438 528.820312 490.605469 528.652344 489.691406 528.433594 C 488.78125 528.21875 487.882812 527.960938 486.996094 527.65625 C 486.109375 527.351562 485.238281 527.003906 484.386719 526.617188 C 483.535156 526.226562 482.703125 525.796875 481.894531 525.324219 C 481.082031 524.855469 480.296875 524.34375 479.539062 523.796875 C 478.777344 523.25 478.046875 522.664062 477.34375 522.046875 C 476.640625 521.425781 475.96875 520.773438 475.332031 520.085938 C 474.691406 519.402344 474.089844 518.683594 473.523438 517.941406 C 472.953125 517.195312 472.421875 516.425781 471.929688 515.628906 C 471.4375 514.828125 470.984375 514.011719 470.574219 513.167969 C 470.160156 512.328125 469.792969 511.46875 469.464844 510.589844 C 469.136719 509.710938 468.855469 508.820312 468.613281 507.914062 C 468.375 507.007812 468.179688 506.09375 468.03125 505.167969 C 467.878906 504.242188 467.777344 503.3125 467.71875 502.378906 C 467.660156 501.441406 467.644531 500.507812 467.679688 499.570312 C 467.714844 498.632812 467.792969 497.703125 467.917969 496.773438 C 468.042969 495.84375 468.214844 494.925781 468.429688 494.011719 C 468.644531 493.101562 468.90625 492.203125 469.207031 491.316406 C 469.511719 490.429688 469.859375 489.558594 470.25 488.707031 C 470.636719 487.855469 471.066406 487.023438 471.539062 486.214844 C 472.011719 485.40625 472.519531 484.621094 473.066406 483.859375 C 473.617188 483.097656 474.199219 482.367188 474.820312 481.664062 C 475.441406 480.964844 476.09375 480.292969 476.777344 479.652344 C 477.464844 479.015625 478.179688 478.414062 478.925781 477.84375 C 479.671875 477.277344 480.441406 476.746094 481.238281 476.253906 C 482.035156 475.761719 482.855469 475.308594 483.699219 474.898438 C 484.539062 474.484375 485.398438 474.117188 486.277344 473.789062 C 487.15625 473.460938 488.046875 473.175781 488.953125 472.9375 C 489.859375 472.699219 490.773438 472.503906 491.699219 472.355469 C 492.625 472.203125 493.554688 472.097656 494.492188 472.042969 C 495.425781 471.984375 496.363281 471.96875 497.296875 472.003906 C 498.234375 472.039062 499.167969 472.117188 500.097656 472.242188 C 501.023438 472.367188 501.945312 472.539062 502.855469 472.753906 Z M 502.855469 472.753906 " fill-opacity="1" fill-rule="nonzero"/><path fill="#fef0ae" d="M 634.03125 489.28125 C 634.390625 490.148438 634.707031 491.027344 634.980469 491.925781 C 635.253906 492.824219 635.480469 493.730469 635.664062 494.648438 C 635.847656 495.570312 635.984375 496.496094 636.078125 497.429688 C 636.167969 498.359375 636.214844 499.296875 636.214844 500.234375 C 636.214844 501.171875 636.167969 502.105469 636.078125 503.039062 C 635.984375 503.972656 635.847656 504.898438 635.667969 505.816406 C 635.484375 506.738281 635.257812 507.644531 634.984375 508.542969 C 634.710938 509.4375 634.398438 510.320312 634.039062 511.1875 C 633.679688 512.054688 633.28125 512.898438 632.839844 513.726562 C 632.394531 514.554688 631.914062 515.355469 631.394531 516.136719 C 630.875 516.914062 630.316406 517.667969 629.722656 518.390625 C 629.128906 519.117188 628.5 519.808594 627.835938 520.472656 C 627.171875 521.136719 626.480469 521.765625 625.753906 522.359375 C 625.03125 522.953125 624.277344 523.511719 623.5 524.035156 C 622.71875 524.554688 621.917969 525.035156 621.089844 525.476562 C 620.261719 525.921875 619.417969 526.320312 618.550781 526.679688 C 617.683594 527.039062 616.804688 527.355469 615.90625 527.625 C 615.007812 527.898438 614.101562 528.125 613.179688 528.308594 C 612.261719 528.492188 611.335938 528.628906 610.402344 528.722656 C 609.46875 528.816406 608.535156 528.859375 607.597656 528.859375 C 606.660156 528.859375 605.722656 528.816406 604.789062 528.722656 C 603.859375 528.632812 602.929688 528.496094 602.011719 528.3125 C 601.09375 528.128906 600.183594 527.902344 599.285156 527.628906 C 598.390625 527.359375 597.507812 527.042969 596.640625 526.683594 C 595.777344 526.328125 594.929688 525.925781 594.101562 525.484375 C 593.273438 525.042969 592.472656 524.5625 591.691406 524.042969 C 590.914062 523.519531 590.160156 522.964844 589.433594 522.367188 C 588.710938 521.773438 588.015625 521.144531 587.351562 520.484375 C 586.691406 519.820312 586.0625 519.128906 585.464844 518.402344 C 584.871094 517.679688 584.3125 516.925781 583.792969 516.148438 C 583.269531 515.367188 582.789062 514.566406 582.347656 513.738281 C 581.90625 512.910156 581.503906 512.066406 581.144531 511.199219 C 580.785156 510.332031 580.472656 509.453125 580.199219 508.554688 C 579.925781 507.660156 579.699219 506.75 579.515625 505.832031 C 579.332031 504.910156 579.195312 503.984375 579.101562 503.054688 C 579.011719 502.121094 578.964844 501.183594 578.964844 500.246094 C 578.964844 499.308594 579.011719 498.375 579.101562 497.441406 C 579.191406 496.507812 579.332031 495.582031 579.511719 494.664062 C 579.695312 493.746094 579.921875 492.835938 580.195312 491.9375 C 580.46875 491.042969 580.78125 490.160156 581.140625 489.292969 C 581.5 488.429688 581.898438 487.582031 582.339844 486.753906 C 582.78125 485.929688 583.265625 485.125 583.785156 484.347656 C 584.304688 483.566406 584.863281 482.8125 585.457031 482.089844 C 586.050781 481.363281 586.679688 480.671875 587.34375 480.007812 C 588.007812 479.34375 588.699219 478.714844 589.425781 478.121094 C 590.148438 477.527344 590.902344 476.96875 591.679688 476.449219 C 592.460938 475.925781 593.261719 475.445312 594.089844 475.003906 C 594.917969 474.5625 595.761719 474.160156 596.628906 473.800781 C 597.496094 473.441406 598.375 473.128906 599.273438 472.855469 C 600.171875 472.582031 601.078125 472.355469 602 472.171875 C 602.917969 471.988281 603.84375 471.851562 604.777344 471.757812 C 605.710938 471.667969 606.644531 471.621094 607.582031 471.621094 C 608.519531 471.621094 609.457031 471.664062 610.386719 471.757812 C 611.320312 471.847656 612.246094 471.984375 613.167969 472.167969 C 614.085938 472.351562 614.996094 472.578125 615.890625 472.851562 C 616.789062 473.121094 617.671875 473.4375 618.539062 473.796875 C 619.402344 474.15625 620.25 474.554688 621.078125 474.996094 C 621.902344 475.4375 622.707031 475.917969 623.488281 476.441406 C 624.265625 476.960938 625.019531 477.519531 625.742188 478.113281 C 626.46875 478.707031 627.164062 479.335938 627.824219 479.996094 C 628.488281 480.660156 629.117188 481.355469 629.710938 482.078125 C 630.308594 482.804688 630.867188 483.554688 631.386719 484.335938 C 631.90625 485.113281 632.390625 485.917969 632.832031 486.742188 C 633.273438 487.570312 633.675781 488.414062 634.03125 489.28125 Z M 634.03125 489.28125 " fill-opacity="1" fill-rule="nonzero"/><path fill="#fe93bb" d="M 302.703125 291.054688 C 302.703125 291.992188 302.65625 292.925781 302.566406 293.859375 C 302.472656 294.792969 302.335938 295.71875 302.152344 296.636719 C 301.96875 297.554688 301.742188 298.464844 301.46875 299.359375 C 301.199219 300.257812 300.882812 301.136719 300.523438 302.003906 C 300.164062 302.871094 299.765625 303.714844 299.324219 304.542969 C 298.882812 305.367188 298.402344 306.171875 297.878906 306.949219 C 297.359375 307.730469 296.800781 308.480469 296.207031 309.207031 C 295.613281 309.929688 294.984375 310.625 294.320312 311.285156 C 293.65625 311.949219 292.964844 312.578125 292.238281 313.171875 C 291.515625 313.765625 290.761719 314.324219 289.984375 314.84375 C 289.203125 315.367188 288.402344 315.847656 287.574219 316.289062 C 286.75 316.730469 285.902344 317.132812 285.035156 317.488281 C 284.171875 317.847656 283.289062 318.164062 282.390625 318.4375 C 281.496094 318.707031 280.585938 318.933594 279.667969 319.117188 C 278.75 319.300781 277.824219 319.4375 276.890625 319.53125 C 275.957031 319.621094 275.023438 319.667969 274.085938 319.667969 C 273.148438 319.667969 272.210938 319.621094 271.277344 319.53125 C 270.347656 319.4375 269.421875 319.300781 268.5 319.117188 C 267.582031 318.933594 266.671875 318.707031 265.777344 318.4375 C 264.878906 318.164062 264 317.847656 263.132812 317.488281 C 262.265625 317.132812 261.421875 316.730469 260.59375 316.289062 C 259.765625 315.847656 258.964844 315.367188 258.183594 314.84375 C 257.40625 314.324219 256.652344 313.765625 255.929688 313.171875 C 255.203125 312.578125 254.511719 311.949219 253.847656 311.285156 C 253.183594 310.625 252.554688 309.929688 251.960938 309.207031 C 251.367188 308.480469 250.808594 307.730469 250.289062 306.949219 C 249.769531 306.171875 249.285156 305.367188 248.84375 304.542969 C 248.402344 303.714844 248.003906 302.871094 247.644531 302.003906 C 247.285156 301.136719 246.96875 300.257812 246.699219 299.359375 C 246.425781 298.464844 246.199219 297.554688 246.015625 296.636719 C 245.832031 295.71875 245.695312 294.792969 245.605469 293.859375 C 245.511719 292.925781 245.464844 291.992188 245.464844 291.054688 C 245.464844 290.117188 245.511719 289.183594 245.605469 288.25 C 245.695312 287.316406 245.832031 286.390625 246.015625 285.472656 C 246.199219 284.550781 246.425781 283.644531 246.699219 282.746094 C 246.96875 281.851562 247.285156 280.96875 247.644531 280.105469 C 248.003906 279.238281 248.402344 278.390625 248.84375 277.566406 C 249.285156 276.738281 249.769531 275.9375 250.289062 275.15625 C 250.808594 274.378906 251.367188 273.625 251.960938 272.902344 C 252.554688 272.175781 253.183594 271.484375 253.847656 270.820312 C 254.511719 270.160156 255.203125 269.53125 255.929688 268.933594 C 256.652344 268.339844 257.40625 267.78125 258.183594 267.261719 C 258.964844 266.742188 259.765625 266.261719 260.59375 265.820312 C 261.421875 265.378906 262.265625 264.976562 263.132812 264.617188 C 264 264.257812 264.878906 263.945312 265.777344 263.671875 C 266.671875 263.398438 267.582031 263.171875 268.5 262.988281 C 269.421875 262.808594 270.347656 262.667969 271.277344 262.578125 C 272.210938 262.484375 273.148438 262.441406 274.085938 262.441406 C 275.023438 262.441406 275.957031 262.484375 276.890625 262.578125 C 277.824219 262.667969 278.75 262.808594 279.667969 262.988281 C 280.585938 263.171875 281.496094 263.398438 282.390625 263.671875 C 283.289062 263.945312 284.171875 264.257812 285.035156 264.617188 C 285.902344 264.976562 286.75 265.378906 287.574219 265.820312 C 288.402344 266.261719 289.203125 266.742188 289.984375 267.261719 C 290.761719 267.78125 291.515625 268.339844 292.238281 268.933594 C 292.964844 269.53125 293.65625 270.160156 294.320312 270.820312 C 294.984375 271.484375 295.613281 272.175781 296.207031 272.902344 C 296.800781 273.625 297.359375 274.378906 297.878906 275.15625 C 298.402344 275.9375 298.882812 276.738281 299.324219 277.566406 C 299.765625 278.390625 300.164062 279.238281 300.523438 280.105469 C 300.882812 280.96875 301.199219 281.851562 301.46875 282.746094 C 301.742188 283.644531 301.96875 284.550781 302.152344 285.472656 C 302.335938 286.390625 302.472656 287.316406 302.566406 288.25 C 302.65625 289.183594 302.703125 290.117188 302.703125 291.054688 Z M 302.703125 291.054688 " fill-opacity="1" fill-rule="nonzero"/><g clip-path="url(#8ef1024d13)"><path fill="#01d0fb" d="M 719.296875 657.921875 L 48.363281 657.921875 C 42.34375 657.921875 37.457031 653.039062 37.457031 647.019531 L 37.457031 610.648438 C 37.457031 604.625 42.339844 599.742188 48.363281 599.742188 L 719.296875 599.742188 C 725.320312 599.742188 730.203125 604.625 730.203125 610.648438 L 730.203125 647.019531 C 730.203125 653.039062 725.320312 657.921875 719.296875 657.921875 Z M 719.296875 657.921875 " fill-opacity="1" fill-rule="nonzero"/><path fill="#01c0fa" d="M 719.296875 599.742188 L 688.386719 599.742188 L 688.386719 619.144531 C 688.386719 625.167969 683.503906 630.050781 677.480469 630.050781 L 37.457031 630.050781 L 37.457031 647.019531 C 37.457031 653.042969 42.339844 657.921875 48.363281 657.921875 L 719.296875 657.921875 C 725.320312 657.921875 730.203125 653.042969 730.203125 647.019531 L 730.203125 610.648438 C 730.203125 604.625 725.320312 599.742188 719.296875 599.742188 Z M 719.296875 599.742188 " fill-opacity="1" fill-rule="nonzero"/></g></svg>