<svg
    xmlns="http://www.w3.org/2000/svg"
    xmlns:hyvector="https://www.hyvector.com/dtd"
    width="500"
    height="500"
    viewBox="0 0 500 500"
    >
  <g
      hyvector:transform="translate(-83.33333333, -83.33333333) scale(1.33333333, 1.33333333)"
      >
    <path
      d="M50 50h400v400h-400z"
      stroke-width="2"
      stroke-linecap="round"
      stroke-linejoin="round"
      hyvector:pathType="shape"
      hyvector:shapeType="frame"
      hyvector:thickness="1"
      hyvector:cornerRounding="0"
      hyvector:transform="translate(100, 100) scale(3, 3)"
      fill="#f2f5f6"
      stroke="#000000"
      />
    <g>
      <path
        d="M266.67 133.33v400"
        stroke-width="2"
        stroke-linecap="round"
        stroke-linejoin="round"
        transform="translate(-83.33333333, -83.33333333)"
        hyvector:transform="scale(1)"
        hyvector:d="M200 100v300"
        hyvector:nodetypes="2c"
        fill="none"
        stroke="#000000"
        />
      <path
        d="M400 533.33v-400"
        stroke-width="2"
        stroke-linecap="round"
        stroke-linejoin="round"
        transform="translate(-83.33333333, -83.33333333)"
        hyvector:transform="scale(1)"
        hyvector:d="M300 400v-300"
        hyvector:nodetypes="2c"
        fill="none"
        stroke="#000000"
        />
      <path
        d="M133.33 266.67h400"
        stroke-width="2"
        stroke-linecap="round"
        stroke-linejoin="round"
        transform="translate(-83.33333333, -83.33333333)"
        hyvector:transform="scale(1)"
        hyvector:d="M100 200h300"
        hyvector:nodetypes="2c"
        fill="none"
        stroke="#000000"
        />
      <path
        d="M133.33 400h400"
        stroke-width="2"
        stroke-linecap="round"
        stroke-linejoin="round"
        transform="translate(-83.33333333, -83.33333333)"
        hyvector:transform="scale(1)"
        hyvector:d="M100 300h300"
        hyvector:nodetypes="2c"
        fill="none"
        stroke="#000000"
        />
    </g>
    <g>
      <path
        d="M142.41 81.12l9.8 9.81-25.74 25.74 25.74 25.74-9.8 9.8-25.74-25.74-25.74 25.74-9.81-9.8 25.74-25.74-25.74-25.74 9.81-9.81 25.74 25.74z"
        stroke-width="2"
        stroke-linecap="round"
        stroke-linejoin="round"
        hyvector:pathType="shape"
        hyvector:shapeType="cross"
        hyvector:thickness="0.16"
        hyvector:cornerRounding="0"
        hyvector:transform="translate(150, 104.03805922) rotate(45) scale(0.65, 0.65)"
        fill="#ffd1dc"
        stroke="#000000"
        />
      <path
        d="M250 73.33c23.93 0 43.33 19.4 43.33 43.34 0 23.93-19.4 43.33-43.33 43.33-23.93 0-43.33-19.4-43.33-43.33 0-23.94 19.4-43.34 43.33-43.34zM250 86.33c-16.75 0-30.33 13.58-30.33 30.34 0 16.75 13.58 30.33 30.33 30.33 16.75 0 30.33-13.58 30.33-30.33 0-16.76-13.58-30.34-30.33-30.34z"
        stroke-width="2"
        stroke-linecap="round"
        stroke-linejoin="round"
        hyvector:pathType="shape"
        hyvector:shapeType="donut"
        hyvector:innerRadius="0.7"
        hyvector:sweep="1"
        hyvector:startAngle="0"
        hyvector:transform="translate(217.5, 117.5) scale(0.65, 0.65)"
        fill="#88bbc7"
        stroke="#000000"
        />
      <path
        d="M275.59 214.66l9.75 9.75-25.59 25.59 25.59 25.59-9.75 9.75-25.59-25.59-25.59 25.59-9.75-9.75 25.59-25.59-25.59-25.59 9.75-9.75 25.59 25.59z"
        stroke-width="1.9998787646322917"
        stroke-linecap="round"
        stroke-linejoin="round"
        hyvector:pathType="shape"
        hyvector:shapeType="cross"
        hyvector:thickness="0.16"
        hyvector:cornerRounding="0"
        hyvector:transform="translate(250, 204.30050157) rotate(45) scale(0.6462885, 0.6462885)"
        fill="#ffd1dc"
        stroke="#000000"
        />
      <path
        d="M408.93 347.99l9.74 9.75-25.59 25.59 25.59 25.6-9.74 9.74-25.6-25.59-25.59 25.59-9.75-9.74 25.59-25.6-25.59-25.59 9.75-9.75 25.59 25.59z"
        stroke-width="1.9998787646322917"
        stroke-linecap="round"
        stroke-linejoin="round"
        hyvector:pathType="shape"
        hyvector:shapeType="cross"
        hyvector:thickness="0.16"
        hyvector:cornerRounding="0"
        hyvector:transform="translate(350, 304.30050157) rotate(45) scale(0.6462885, 0.6462885)"
        fill="#ffd1dc"
        stroke="#000000"
        />
      <path
        d="M383.33 73.33c23.94 0 43.34 19.4 43.34 43.34 0 23.93-19.4 43.33-43.34 43.33-23.93 0-43.33-19.4-43.33-43.33 0-23.94 19.4-43.34 43.33-43.34zM383.33 86.33c-16.75 0-30.33 13.58-30.33 30.34 0 16.75 13.58 30.33 30.33 30.33 16.76 0 30.34-13.58 30.34-30.33 0-16.76-13.58-30.34-30.34-30.34z"
        stroke-width="2"
        stroke-linecap="round"
        stroke-linejoin="round"
        hyvector:pathType="shape"
        hyvector:shapeType="donut"
        hyvector:innerRadius="0.7"
        hyvector:sweep="1"
        hyvector:startAngle="0"
        hyvector:transform="translate(317.5, 117.5) scale(0.65, 0.65)"
        fill="#88bbc7"
        stroke="#000000"
        />
    </g>
  </g>
</svg>