<svg xmlns="http://www.w3.org/2000/svg" xmlns:xlink="http://www.w3.org/1999/xlink" width="1024" zoomAndPan="magnify" viewBox="0 0 768 767.999994" height="1024" preserveAspectRatio="xMidYMid meet" version="1.0"><defs><clipPath id="116034bcd2"><path d="M 127.820312 149.304688 L 229.324219 149.304688 L 229.324219 237.917969 L 127.820312 237.917969 Z M 127.820312 149.304688 " clip-rule="nonzero"/></clipPath><clipPath id="fd42db7b66"><path d="M 0.820312 0.304688 L 102.324219 0.304688 L 102.324219 88.917969 L 0.820312 88.917969 Z M 0.820312 0.304688 " clip-rule="nonzero"/></clipPath><clipPath id="30a064c899"><rect x="0" width="103" y="0" height="89"/></clipPath><clipPath id="8339115594"><path d="M 501 103 L 686.160156 103 L 686.160156 288 L 501 288 Z M 501 103 " clip-rule="nonzero"/></clipPath><clipPath id="17b5538f77"><path d="M 296 297 L 686.160156 297 L 686.160156 686.53125 L 296 686.53125 Z M 296 297 " clip-rule="nonzero"/></clipPath><clipPath id="fad580ed70"><path d="M 103 501 L 289 501 L 289 686.53125 L 103 686.53125 Z M 103 501 " clip-rule="nonzero"/></clipPath><clipPath id="630bcc4525"><path d="M 81.660156 81.28125 L 266 81.28125 L 266 266 L 81.660156 266 Z M 81.660156 81.28125 " clip-rule="nonzero"/></clipPath><clipPath id="a3854d39ff"><path d="M 280 81.28125 L 465 81.28125 L 465 266 L 280 266 Z M 280 81.28125 " clip-rule="nonzero"/></clipPath><clipPath id="1eea79e6ba"><path d="M 479 81.28125 L 664 81.28125 L 664 266 L 479 266 Z M 479 81.28125 " clip-rule="nonzero"/></clipPath><clipPath id="ecb061744b"><path d="M 81.660156 356 L 92 356 L 92 400 L 81.660156 400 Z M 81.660156 356 " clip-rule="nonzero"/></clipPath><clipPath id="5a7ee3b90b"><path d="M 81.660156 280 L 266 280 L 266 465 L 81.660156 465 Z M 81.660156 280 " clip-rule="nonzero"/></clipPath><clipPath id="594313c64c"><path d="M 81.660156 479 L 266 479 L 266 664 L 81.660156 664 Z M 81.660156 479 " clip-rule="nonzero"/></clipPath></defs><rect x="-76.8" width="921.6" fill="#ffffff" y="-76.799999" height="921.599993" fill-opacity="1"/><rect x="-76.8" width="921.6" fill="#000000" y="-76.799999" height="921.599993" fill-opacity="1"/><g clip-path="url(#116034bcd2)"><g transform="matrix(1, 0, 0, 1, 127, 149)"><g clip-path="url(#30a064c899)"><g clip-path="url(#fd42db7b66)"><path fill="#007daf" d="M 0.820312 0.304688 L 102.242188 0.304688 L 102.242188 88.917969 L 0.820312 88.917969 Z M 0.820312 0.304688 " fill-opacity="1" fill-rule="nonzero"/></g></g></g></g><path fill="#e6e7e8" d="M 271.667969 103.046875 L 120.316406 103.046875 C 111.09375 103.046875 103.589844 110.554688 103.589844 119.773438 L 103.589844 271.121094 C 103.589844 280.34375 111.09375 287.847656 120.316406 287.847656 L 271.667969 287.847656 C 280.886719 287.847656 288.390625 280.34375 288.390625 271.121094 L 288.390625 119.773438 C 288.390625 110.554688 280.886719 103.046875 271.667969 103.046875 Z M 271.667969 103.046875 " fill-opacity="1" fill-rule="nonzero"/><path fill="#e6e7e8" d="M 319.136719 287.847656 L 470.488281 287.847656 C 479.710938 287.847656 487.214844 280.34375 487.214844 271.121094 L 487.214844 119.773438 C 487.214844 110.554688 479.710938 103.046875 470.488281 103.046875 L 319.136719 103.046875 C 309.917969 103.046875 302.410156 110.554688 302.410156 119.773438 L 302.410156 271.121094 C 302.410156 280.347656 309.910156 287.847656 319.136719 287.847656 Z M 319.136719 287.847656 " fill-opacity="1" fill-rule="nonzero"/><g clip-path="url(#8339115594)"><path fill="#e6e7e8" d="M 669.304688 103.046875 L 517.953125 103.046875 C 508.734375 103.046875 501.230469 110.554688 501.230469 119.773438 L 501.230469 271.121094 C 501.230469 280.34375 508.734375 287.847656 517.953125 287.847656 L 669.304688 287.847656 C 678.527344 287.847656 686.03125 280.34375 686.03125 271.121094 L 686.03125 119.773438 C 686.03125 110.554688 678.527344 103.046875 669.304688 103.046875 Z M 669.304688 103.046875 " fill-opacity="1" fill-rule="nonzero"/></g><path fill="#e6e7e8" d="M 271.667969 302.40625 L 120.316406 302.40625 C 111.09375 302.40625 103.589844 309.910156 103.589844 319.128906 L 103.589844 470.480469 C 103.589844 479.699219 111.09375 487.203125 120.316406 487.203125 L 271.667969 487.203125 C 280.886719 487.203125 288.390625 479.699219 288.390625 470.480469 L 288.390625 319.128906 C 288.390625 309.910156 280.886719 302.40625 271.667969 302.40625 Z M 271.667969 302.40625 " fill-opacity="1" fill-rule="nonzero"/><g clip-path="url(#17b5538f77)"><path fill="#e6e7e8" d="M 669.304688 302.40625 L 517.953125 302.40625 C 508.734375 302.40625 501.230469 309.910156 501.230469 319.128906 L 501.230469 469.738281 C 498.683594 468.996094 496.070312 468.457031 493.34375 468.351562 C 490.195312 468.222656 487.128906 468.554688 484.183594 469.285156 L 470.042969 454.039062 C 482.503906 438.105469 489.722656 418.785156 490.5 398.183594 C 491.476562 372.308594 482.316406 347.59375 464.710938 328.609375 C 447.101562 309.621094 423.15625 298.628906 397.273438 297.648438 C 371.421875 296.613281 346.6875 305.828125 327.699219 323.4375 C 288.5 359.785156 286.179688 421.246094 322.523438 460.445312 C 340.132812 479.433594 364.082031 490.429688 389.960938 491.410156 C 391.214844 491.453125 392.460938 491.480469 393.707031 491.480469 C 412.96875 491.480469 431.410156 485.777344 447.21875 475.234375 L 461.464844 490.601562 C 460.527344 493.464844 459.839844 496.429688 459.722656 499.527344 C 459.695312 500.277344 459.722656 501.019531 459.746094 501.765625 L 319.136719 501.765625 C 309.917969 501.765625 302.410156 509.269531 302.410156 518.492188 L 302.410156 669.839844 C 302.410156 679.0625 309.917969 686.566406 319.136719 686.566406 L 470.488281 686.566406 C 479.710938 686.566406 487.214844 679.0625 487.214844 669.839844 L 487.214844 543.179688 L 501.234375 558.296875 L 501.234375 669.835938 C 501.234375 679.054688 508.738281 686.5625 517.960938 686.5625 L 669.3125 686.5625 C 678.53125 686.5625 686.035156 679.054688 686.035156 669.835938 L 686.035156 518.492188 C 686.035156 509.269531 678.53125 501.765625 669.3125 501.765625 L 537.320312 501.765625 L 523.824219 487.210938 L 669.3125 487.210938 C 678.53125 487.210938 686.035156 479.703125 686.035156 470.484375 L 686.035156 319.128906 C 686.03125 309.910156 678.527344 302.40625 669.304688 302.40625 Z M 669.304688 302.40625 " fill-opacity="1" fill-rule="nonzero"/></g><g clip-path="url(#fad580ed70)"><path fill="#e6e7e8" d="M 271.667969 501.765625 L 120.316406 501.765625 C 111.09375 501.765625 103.589844 509.269531 103.589844 518.492188 L 103.589844 669.839844 C 103.589844 679.0625 111.09375 686.566406 120.316406 686.566406 L 271.667969 686.566406 C 280.886719 686.566406 288.390625 679.0625 288.390625 669.839844 L 288.390625 518.492188 C 288.390625 509.265625 280.886719 501.765625 271.667969 501.765625 Z M 271.667969 501.765625 " fill-opacity="1" fill-rule="nonzero"/></g><path fill="#d4fbff" d="M 249.363281 86.324219 L 98.015625 86.324219 C 91.855469 86.324219 86.863281 91.320312 86.863281 97.472656 L 86.863281 248.820312 C 86.863281 254.980469 91.855469 259.972656 98.015625 259.972656 L 249.363281 259.972656 C 255.523438 259.972656 260.515625 254.980469 260.515625 248.820312 L 260.515625 97.472656 C 260.515625 91.320312 255.523438 86.324219 249.363281 86.324219 Z M 249.363281 86.324219 " fill-opacity="1" fill-rule="nonzero"/><path fill="#d4fbff" d="M 448.1875 86.324219 L 296.835938 86.324219 C 290.675781 86.324219 285.6875 91.3125 285.6875 97.472656 L 285.6875 248.820312 C 285.6875 254.980469 290.675781 259.972656 296.835938 259.972656 L 448.1875 259.972656 C 454.347656 259.972656 459.339844 254.980469 459.339844 248.820312 L 459.339844 97.472656 C 459.339844 91.320312 454.347656 86.324219 448.1875 86.324219 Z M 448.1875 86.324219 " fill-opacity="1" fill-rule="nonzero"/><path fill="#d4fbff" d="M 647.007812 86.324219 L 495.652344 86.324219 C 489.496094 86.324219 484.503906 91.3125 484.503906 97.472656 L 484.503906 248.820312 C 484.503906 254.980469 489.496094 259.972656 495.652344 259.972656 L 647.003906 259.972656 C 653.164062 259.972656 658.15625 254.980469 658.15625 248.820312 L 658.15625 97.472656 C 658.15625 91.320312 653.164062 86.324219 647.007812 86.324219 Z M 647.007812 86.324219 " fill-opacity="1" fill-rule="nonzero"/><path fill="#d4fbff" d="M 249.363281 285.683594 L 98.015625 285.683594 C 91.855469 285.683594 86.863281 290.675781 86.863281 296.835938 L 86.863281 448.183594 C 86.863281 454.34375 91.855469 459.332031 98.015625 459.332031 L 249.363281 459.332031 C 255.523438 459.332031 260.515625 454.34375 260.515625 448.183594 L 260.515625 296.835938 C 260.515625 290.675781 255.523438 285.683594 249.363281 285.683594 Z M 249.363281 285.683594 " fill-opacity="1" fill-rule="nonzero"/><path fill="#d4fbff" d="M 647.007812 285.683594 L 495.652344 285.683594 C 489.496094 285.683594 484.503906 290.675781 484.503906 296.835938 L 484.503906 448.183594 C 484.503906 454.34375 489.496094 459.332031 495.652344 459.332031 L 647.003906 459.332031 C 653.164062 459.332031 658.15625 454.34375 658.15625 448.183594 L 658.15625 296.835938 C 658.15625 290.675781 653.164062 285.683594 647.007812 285.683594 Z M 647.007812 285.683594 " fill-opacity="1" fill-rule="nonzero"/><path fill="#d4fbff" d="M 249.363281 485.042969 L 98.015625 485.042969 C 91.855469 485.042969 86.863281 490.03125 86.863281 496.191406 L 86.863281 647.539062 C 86.863281 653.699219 91.855469 658.691406 98.015625 658.691406 L 249.363281 658.691406 C 255.523438 658.691406 260.515625 653.699219 260.515625 647.539062 L 260.515625 496.191406 C 260.515625 490.03125 255.523438 485.042969 249.363281 485.042969 Z M 249.363281 485.042969 " fill-opacity="1" fill-rule="nonzero"/><path fill="#d4fbff" d="M 450.117188 496.726562 C 446.957031 493.316406 444.976562 489.269531 443.917969 485.042969 L 296.835938 485.042969 C 290.675781 485.042969 285.6875 490.03125 285.6875 496.191406 L 285.6875 647.539062 C 285.6875 653.699219 290.675781 658.691406 296.835938 658.691406 L 448.1875 658.691406 C 454.347656 658.691406 459.339844 653.699219 459.339844 647.539062 L 459.339844 506.671875 Z M 450.117188 496.726562 " fill-opacity="1" fill-rule="nonzero"/><path fill="#d4fbff" d="M 647.007812 485.042969 L 495.652344 485.042969 C 489.496094 485.042969 484.503906 490.03125 484.503906 496.191406 L 484.503906 647.539062 C 484.503906 653.699219 489.496094 658.691406 495.652344 658.691406 L 647.003906 658.691406 C 653.164062 658.691406 658.15625 653.699219 658.15625 647.539062 L 658.15625 496.191406 C 658.15625 490.03125 653.164062 485.042969 647.007812 485.042969 Z M 647.007812 485.042969 " fill-opacity="1" fill-rule="nonzero"/><path fill="#fa759e" d="M 188.628906 206.082031 L 173.148438 148.65625 L 157.46875 206.082031 C 156.25 210.4375 155.28125 213.5625 154.558594 215.457031 C 153.839844 217.351562 152.589844 219.050781 150.800781 220.554688 C 149.015625 222.058594 146.644531 222.808594 143.683594 222.808594 C 141.285156 222.808594 139.316406 222.363281 137.773438 221.46875 C 136.222656 220.574219 134.976562 219.308594 134.015625 217.679688 C 133.054688 216.046875 132.273438 214.109375 131.664062 211.867188 C 131.054688 209.621094 130.511719 207.546875 130.027344 205.625 L 114.089844 141.144531 C 113.128906 137.398438 112.652344 134.542969 112.652344 132.585938 C 112.652344 130.101562 113.527344 128.007812 115.269531 126.3125 C 117.011719 124.613281 119.167969 123.765625 121.738281 123.765625 C 125.265625 123.765625 127.636719 124.898438 128.855469 127.160156 C 130.074219 129.425781 131.140625 132.714844 132.054688 137.027344 L 144.597656 192.953125 L 158.640625 140.621094 C 159.6875 136.617188 160.621094 133.566406 161.449219 131.476562 C 162.277344 129.386719 163.628906 127.578125 165.5 126.054688 C 167.375 124.53125 169.925781 123.769531 173.144531 123.769531 C 176.410156 123.769531 178.949219 124.566406 180.753906 126.15625 C 182.5625 127.746094 183.816406 129.476562 184.511719 131.351562 C 185.207031 133.222656 186.148438 136.316406 187.320312 140.628906 L 201.496094 192.957031 L 214.039062 137.03125 C 214.648438 134.113281 215.226562 131.828125 215.769531 130.171875 C 216.3125 128.515625 217.253906 127.035156 218.578125 125.730469 C 219.910156 124.425781 221.832031 123.769531 224.363281 123.769531 C 226.890625 123.769531 229.035156 124.609375 230.796875 126.285156 C 232.558594 127.957031 233.441406 130.0625 233.441406 132.589844 C 233.441406 134.375 232.964844 137.230469 232.003906 141.152344 L 216.066406 205.632812 C 214.980469 209.988281 214.074219 213.175781 213.355469 215.203125 C 212.632812 217.226562 211.414062 219 209.691406 220.527344 C 207.972656 222.058594 205.542969 222.8125 202.40625 222.8125 C 199.445312 222.8125 197.070312 222.070312 195.289062 220.59375 C 193.5 219.113281 192.261719 217.445312 191.566406 215.597656 C 190.871094 213.75 189.894531 210.566406 188.628906 206.082031 Z M 188.628906 206.082031 " fill-opacity="1" fill-rule="nonzero"/><path fill="#fa759e" d="M 370.398438 123.765625 C 380.328125 123.765625 388.855469 125.78125 395.972656 129.808594 C 403.09375 133.832031 408.484375 139.5625 412.144531 146.988281 C 415.808594 154.417969 417.636719 163.136719 417.636719 173.15625 C 417.636719 180.558594 416.632812 187.285156 414.628906 193.34375 C 412.625 199.394531 409.621094 204.644531 405.609375 209.089844 C 401.605469 213.53125 396.683594 216.929688 390.84375 219.28125 C 385.011719 221.628906 378.324219 222.808594 370.789062 222.808594 C 363.296875 222.808594 356.589844 221.601562 350.664062 219.183594 C 344.738281 216.765625 339.800781 213.359375 335.832031 208.957031 C 331.867188 204.558594 328.875 199.261719 326.851562 193.078125 C 324.824219 186.894531 323.8125 180.207031 323.8125 173.023438 C 323.8125 165.660156 324.871094 158.910156 326.984375 152.769531 C 329.09375 146.625 332.15625 141.398438 336.164062 137.089844 C 340.167969 132.777344 345.050781 129.476562 350.796875 127.191406 C 356.546875 124.90625 363.082031 123.765625 370.398438 123.765625 Z M 397.96875 173.023438 C 397.96875 166.011719 396.835938 159.933594 394.570312 154.792969 C 392.308594 149.65625 389.074219 145.765625 384.867188 143.128906 C 380.664062 140.496094 375.839844 139.179688 370.398438 139.179688 C 366.523438 139.179688 362.9375 139.910156 359.648438 141.367188 C 356.355469 142.824219 353.527344 144.953125 351.152344 147.742188 C 348.78125 150.527344 346.90625 154.089844 345.53125 158.425781 C 344.160156 162.753906 343.476562 167.625 343.476562 173.027344 C 343.476562 178.472656 344.160156 183.394531 345.53125 187.792969 C 346.902344 192.191406 348.84375 195.839844 351.34375 198.734375 C 353.847656 201.628906 356.722656 203.796875 359.96875 205.234375 C 363.210938 206.671875 366.773438 207.394531 370.652344 207.394531 C 375.617188 207.394531 380.175781 206.152344 384.339844 203.671875 C 388.5 201.1875 391.808594 197.355469 394.273438 192.171875 C 396.738281 186.984375 397.96875 180.601562 397.96875 173.023438 Z M 397.96875 173.023438 " fill-opacity="1" fill-rule="nonzero"/><path fill="#fa759e" d="M 558.316406 179.394531 L 551.523438 179.394531 L 551.523438 210.164062 C 551.523438 214.21875 550.628906 217.199219 548.84375 219.117188 C 547.054688 221.03125 544.722656 221.992188 541.851562 221.992188 C 538.757812 221.992188 536.363281 220.992188 534.664062 218.984375 C 532.96875 216.980469 532.117188 214.039062 532.117188 210.164062 L 532.117188 136.46875 C 532.117188 132.289062 533.050781 129.257812 534.925781 127.390625 C 536.796875 125.523438 539.824219 124.582031 544.003906 124.582031 L 575.5625 124.582031 C 579.917969 124.582031 583.640625 124.765625 586.730469 125.136719 C 589.824219 125.507812 592.613281 126.257812 595.09375 127.390625 C 598.101562 128.65625 600.757812 130.460938 603.066406 132.8125 C 605.378906 135.164062 607.128906 137.894531 608.328125 141.011719 C 609.527344 144.125 610.125 147.425781 610.125 150.910156 C 610.125 158.054688 608.109375 163.757812 604.082031 168.027344 C 600.054688 172.296875 593.949219 175.324219 585.757812 177.105469 C 589.199219 178.933594 592.484375 181.632812 595.625 185.203125 C 598.761719 188.773438 601.558594 192.578125 604.015625 196.601562 C 606.480469 200.628906 608.394531 204.269531 609.765625 207.515625 C 611.136719 210.757812 611.820312 212.992188 611.820312 214.210938 C 611.820312 215.476562 611.421875 216.726562 610.613281 217.96875 C 609.804688 219.207031 608.707031 220.1875 607.3125 220.910156 C 605.914062 221.628906 604.304688 221.984375 602.476562 221.984375 C 600.300781 221.984375 598.472656 221.472656 596.988281 220.453125 C 595.507812 219.425781 594.230469 218.132812 593.164062 216.5625 C 592.097656 214.992188 590.652344 212.6875 588.820312 209.636719 L 581.046875 196.699219 C 578.257812 191.953125 575.765625 188.335938 573.566406 185.855469 C 571.367188 183.371094 569.132812 181.675781 566.867188 180.753906 C 564.605469 179.835938 561.761719 179.394531 558.316406 179.394531 Z M 569.421875 139.148438 L 551.523438 139.148438 L 551.523438 165.476562 L 568.90625 165.476562 C 573.566406 165.476562 577.484375 165.074219 580.664062 164.269531 C 583.84375 163.460938 586.269531 162.089844 587.949219 160.152344 C 589.625 158.210938 590.464844 155.546875 590.464844 152.148438 C 590.464844 149.492188 589.789062 147.152344 588.4375 145.125 C 587.085938 143.101562 585.214844 141.585938 582.816406 140.585938 C 580.554688 139.628906 576.089844 139.148438 569.421875 139.148438 Z M 569.421875 139.148438 " fill-opacity="1" fill-rule="nonzero"/><path fill="#fa759e" d="M 542.933594 325.625 L 568.214844 325.625 C 574.789062 325.625 580.429688 326.234375 585.132812 327.453125 C 589.835938 328.671875 594.105469 330.960938 597.9375 334.3125 C 607.910156 342.847656 612.898438 355.828125 612.898438 373.253906 C 612.898438 379 612.394531 384.25 611.394531 389 C 610.394531 393.746094 608.847656 398.027344 606.753906 401.835938 C 604.660156 405.648438 601.984375 409.054688 598.714844 412.0625 C 596.144531 414.371094 593.339844 416.21875 590.285156 417.617188 C 587.238281 419.007812 583.960938 419.988281 580.457031 420.554688 C 576.953125 421.125 572.996094 421.402344 568.601562 421.402344 L 543.316406 421.402344 C 539.789062 421.402344 537.132812 420.871094 535.347656 419.804688 C 533.558594 418.738281 532.394531 417.234375 531.851562 415.296875 C 531.308594 413.355469 531.035156 410.84375 531.035156 407.75 L 531.035156 337.515625 C 531.035156 333.335938 531.96875 330.304688 533.84375 328.4375 C 535.722656 326.5625 538.75 325.625 542.933594 325.625 Z M 550.445312 340.980469 L 550.445312 405.984375 L 565.148438 405.984375 C 568.371094 405.984375 570.894531 405.898438 572.726562 405.722656 C 574.5625 405.550781 576.449219 405.113281 578.410156 404.417969 C 580.371094 403.722656 582.070312 402.742188 583.507812 401.480469 C 589.996094 395.988281 593.242188 386.539062 593.242188 373.125 C 593.242188 363.675781 591.816406 356.597656 588.960938 351.890625 C 586.109375 347.183594 582.589844 344.195312 578.410156 342.910156 C 574.230469 341.625 569.179688 340.980469 563.253906 340.980469 Z M 550.445312 340.980469 " fill-opacity="1" fill-rule="nonzero"/><path fill="#fa759e" d="M 587.554688 604.527344 L 572.074219 547.097656 L 556.394531 604.527344 C 555.175781 608.882812 554.203125 612.007812 553.484375 613.902344 C 552.761719 615.792969 551.511719 617.496094 549.726562 619 C 547.9375 620.5 545.566406 621.253906 542.605469 621.253906 C 540.210938 621.253906 538.242188 620.804688 536.695312 619.914062 C 535.152344 619.019531 533.898438 617.753906 532.9375 616.125 C 531.980469 614.496094 531.199219 612.554688 530.589844 610.3125 C 529.980469 608.066406 529.4375 605.988281 528.953125 604.070312 L 513.007812 539.585938 C 512.050781 535.835938 511.574219 532.984375 511.574219 531.023438 C 511.574219 528.539062 512.445312 526.449219 514.1875 524.753906 C 515.929688 523.050781 518.085938 522.203125 520.65625 522.203125 C 524.183594 522.203125 526.554688 523.335938 527.773438 525.601562 C 528.992188 527.867188 530.058594 531.15625 530.972656 535.46875 L 543.515625 591.390625 L 557.566406 539.0625 C 558.613281 535.054688 559.546875 532.003906 560.375 529.917969 C 561.203125 527.824219 562.550781 526.015625 564.425781 524.492188 C 566.300781 522.972656 568.847656 522.210938 572.066406 522.210938 C 575.332031 522.210938 577.871094 523.007812 579.679688 524.59375 C 581.488281 526.183594 582.742188 527.917969 583.4375 529.789062 C 584.132812 531.664062 585.070312 534.757812 586.246094 539.066406 L 600.421875 591.398438 L 612.964844 535.472656 C 613.574219 532.550781 614.152344 530.265625 614.695312 528.613281 C 615.238281 526.957031 616.179688 525.472656 617.503906 524.167969 C 618.832031 522.863281 620.757812 522.210938 623.285156 522.210938 C 625.816406 522.210938 627.957031 523.046875 629.71875 524.722656 C 631.480469 526.398438 632.367188 528.5 632.367188 531.027344 C 632.367188 532.816406 631.886719 535.667969 630.929688 539.589844 L 614.988281 604.070312 C 613.902344 608.425781 613 611.617188 612.277344 613.640625 C 611.558594 615.667969 610.339844 617.441406 608.617188 618.96875 C 606.894531 620.492188 604.46875 621.253906 601.332031 621.253906 C 598.371094 621.253906 595.992188 620.511719 594.210938 619.035156 C 592.425781 617.550781 591.1875 615.886719 590.488281 614.039062 C 589.792969 612.1875 588.820312 609.011719 587.554688 604.527344 Z M 587.554688 604.527344 " fill-opacity="1" fill-rule="nonzero"/><path fill="#fa759e" d="M 370.398438 522.210938 C 380.328125 522.210938 388.855469 524.226562 395.972656 528.25 C 403.09375 532.277344 408.484375 538.003906 412.144531 545.433594 C 415.808594 552.863281 417.636719 561.582031 417.636719 571.597656 C 417.636719 579.003906 416.632812 585.730469 414.628906 591.789062 C 412.625 597.839844 409.621094 603.089844 405.609375 607.53125 C 401.605469 611.976562 396.683594 615.371094 390.84375 617.722656 C 385.011719 620.074219 378.324219 621.253906 370.789062 621.253906 C 363.296875 621.253906 356.589844 620.042969 350.664062 617.628906 C 344.738281 615.210938 339.800781 611.804688 335.832031 607.402344 C 331.867188 603.003906 328.875 597.707031 326.851562 591.523438 C 324.824219 585.339844 323.8125 578.652344 323.8125 571.46875 C 323.8125 564.105469 324.871094 557.355469 326.984375 551.210938 C 329.09375 545.074219 332.15625 539.84375 336.164062 535.53125 C 340.167969 531.222656 345.050781 527.921875 350.796875 525.636719 C 356.546875 523.351562 363.082031 522.210938 370.398438 522.210938 Z M 397.96875 571.46875 C 397.96875 564.453125 396.835938 558.375 394.570312 553.238281 C 392.308594 548.101562 389.074219 544.210938 384.867188 541.574219 C 380.664062 538.941406 375.839844 537.625 370.398438 537.625 C 366.523438 537.625 362.9375 538.355469 359.648438 539.8125 C 356.355469 541.269531 353.527344 543.398438 351.152344 546.1875 C 348.78125 548.972656 346.90625 552.53125 345.53125 556.867188 C 344.160156 561.199219 343.476562 566.070312 343.476562 571.472656 C 343.476562 576.914062 344.160156 581.839844 345.53125 586.238281 C 346.902344 590.636719 348.84375 594.285156 351.34375 597.179688 C 353.847656 600.074219 356.722656 602.242188 359.96875 603.679688 C 363.210938 605.117188 366.773438 605.835938 370.652344 605.835938 C 375.617188 605.835938 380.175781 604.597656 384.339844 602.117188 C 388.5 599.632812 391.808594 595.796875 394.273438 590.613281 C 396.738281 585.429688 397.96875 579.046875 397.96875 571.46875 Z M 397.96875 571.46875 " fill-opacity="1" fill-rule="nonzero"/><path fill="#fa759e" d="M 159.394531 577.839844 L 152.597656 577.839844 L 152.597656 608.609375 C 152.597656 612.660156 151.707031 615.640625 149.917969 617.5625 C 148.132812 619.480469 145.800781 620.433594 142.925781 620.433594 C 139.835938 620.433594 137.4375 619.433594 135.742188 617.429688 C 134.046875 615.421875 133.191406 612.484375 133.191406 608.609375 L 133.191406 534.914062 C 133.191406 530.734375 134.125 527.703125 136 525.835938 C 137.875 523.960938 140.902344 523.027344 145.078125 523.027344 L 176.636719 523.027344 C 180.992188 523.027344 184.714844 523.210938 187.808594 523.582031 C 190.902344 523.949219 193.6875 524.703125 196.171875 525.835938 C 199.175781 527.097656 201.832031 528.90625 204.144531 531.257812 C 206.453125 533.609375 208.207031 536.339844 209.402344 539.457031 C 210.601562 542.570312 211.199219 545.871094 211.199219 549.355469 C 211.199219 556.5 209.183594 562.199219 205.160156 566.46875 C 201.132812 570.742188 195.023438 573.765625 186.832031 575.550781 C 190.277344 577.378906 193.5625 580.078125 196.699219 583.648438 C 199.835938 587.21875 202.636719 591.019531 205.09375 595.046875 C 207.554688 599.074219 209.46875 602.714844 210.839844 605.960938 C 212.210938 609.203125 212.898438 611.4375 212.898438 612.65625 C 212.898438 613.921875 212.496094 615.167969 211.6875 616.414062 C 210.882812 617.65625 209.785156 618.632812 208.386719 619.355469 C 206.996094 620.074219 205.382812 620.429688 203.554688 620.429688 C 201.375 620.429688 199.546875 619.917969 198.066406 618.898438 C 196.582031 617.871094 195.308594 616.578125 194.242188 615.007812 C 193.175781 613.4375 191.726562 611.132812 189.894531 608.082031 L 182.121094 595.144531 C 179.332031 590.394531 176.839844 586.78125 174.640625 584.296875 C 172.441406 581.816406 170.207031 580.121094 167.945312 579.199219 C 165.691406 578.296875 162.835938 577.839844 159.394531 577.839844 Z M 170.5 537.59375 L 152.597656 537.59375 L 152.597656 563.921875 L 169.980469 563.921875 C 174.640625 563.921875 178.5625 563.519531 181.742188 562.714844 C 184.917969 561.90625 187.347656 560.535156 189.027344 558.59375 C 190.703125 556.65625 191.539062 553.988281 191.539062 550.59375 C 191.539062 547.9375 190.863281 545.597656 189.515625 543.570312 C 188.164062 541.542969 186.289062 540.03125 183.894531 539.03125 C 181.628906 538.070312 177.164062 537.59375 170.5 537.59375 Z M 170.5 537.59375 " fill-opacity="1" fill-rule="nonzero"/><path fill="#fa759e" d="M 144.007812 325.625 L 169.289062 325.625 C 175.867188 325.625 181.507812 326.234375 186.207031 327.453125 C 190.910156 328.671875 195.179688 330.960938 199.015625 334.3125 C 208.988281 342.847656 213.972656 355.828125 213.972656 373.253906 C 213.972656 379 213.472656 384.25 212.46875 389 C 211.46875 393.746094 209.921875 398.027344 207.828125 401.835938 C 205.738281 405.648438 203.0625 409.054688 199.792969 412.0625 C 197.222656 414.371094 194.414062 416.21875 191.363281 417.617188 C 188.3125 419.011719 185.035156 419.988281 181.53125 420.554688 C 178.027344 421.125 174.074219 421.402344 169.675781 421.402344 L 144.394531 421.402344 C 140.863281 421.402344 138.210938 420.871094 136.421875 419.804688 C 134.632812 418.738281 133.472656 417.234375 132.929688 415.296875 C 132.386719 413.355469 132.109375 410.84375 132.109375 407.75 L 132.109375 337.515625 C 132.109375 333.335938 133.046875 330.304688 134.917969 328.4375 C 136.796875 326.5625 139.828125 325.625 144.007812 325.625 Z M 151.523438 340.980469 L 151.523438 405.984375 L 166.222656 405.984375 C 169.445312 405.984375 171.972656 405.898438 173.804688 405.722656 C 175.632812 405.550781 177.527344 405.113281 179.484375 404.417969 C 181.445312 403.722656 183.148438 402.742188 184.582031 401.480469 C 191.074219 395.988281 194.316406 386.539062 194.316406 373.125 C 194.316406 363.675781 192.890625 356.597656 190.039062 351.890625 C 187.183594 347.1875 183.664062 344.195312 179.484375 342.910156 C 175.308594 341.625 170.253906 340.980469 164.328125 340.980469 Z M 151.523438 340.980469 " fill-opacity="1" fill-rule="nonzero"/><path fill="#ffd7e5" d="M 451.550781 458.746094 C 454.144531 456.335938 457.105469 454.585938 460.230469 453.398438 L 440.398438 432.003906 C 438.230469 434.503906 435.933594 436.925781 433.453125 439.226562 C 430.96875 441.527344 428.382812 443.632812 425.730469 445.601562 L 445.5625 466.996094 C 446.984375 463.96875 448.953125 461.144531 451.550781 458.746094 Z M 451.550781 458.746094 " fill-opacity="1" fill-rule="nonzero"/><path fill="#fa759e" d="M 438.328125 310.097656 C 404.011719 273.09375 346.203125 270.914062 309.195312 305.222656 C 272.1875 339.539062 270.011719 397.347656 304.320312 434.351562 C 338.632812 471.355469 396.445312 473.535156 433.453125 439.226562 C 470.457031 404.917969 472.640625 347.101562 438.328125 310.097656 Z M 438.328125 310.097656 " fill-opacity="1" fill-rule="nonzero"/><path fill="#ffffff" d="M 309.195312 321.949219 C 346.203125 287.632812 404.011719 289.816406 438.328125 326.824219 C 452.578125 342.191406 460.433594 361.15625 462.21875 380.527344 C 464.488281 355.613281 456.675781 329.886719 438.328125 310.097656 C 404.015625 273.09375 346.203125 270.914062 309.195312 305.222656 C 287.558594 325.285156 277.921875 353.375 280.429688 380.644531 C 282.40625 358.972656 291.980469 337.914062 309.195312 321.949219 Z M 309.195312 321.949219 " fill-opacity="1" fill-rule="nonzero"/><path fill="#6dc9f7" d="M 371.328125 310.855469 C 337.488281 310.855469 309.953125 338.386719 309.953125 372.226562 C 309.953125 406.0625 337.484375 433.601562 371.328125 433.601562 C 405.167969 433.601562 432.695312 406.0625 432.695312 372.226562 C 432.695312 338.386719 405.164062 310.855469 371.328125 310.855469 Z M 371.328125 310.855469 " fill-opacity="1" fill-rule="nonzero"/><path fill="#ffffff" d="M 409.402344 377.304688 C 406.597656 377.304688 404.328125 375.03125 404.328125 372.226562 C 404.328125 354.027344 389.519531 339.222656 371.320312 339.222656 C 368.511719 339.222656 366.242188 336.949219 366.242188 334.144531 C 366.242188 331.34375 368.511719 329.066406 371.320312 329.066406 C 395.121094 329.066406 414.480469 348.429688 414.480469 372.226562 C 414.480469 375.03125 412.210938 377.304688 409.402344 377.304688 Z M 409.402344 377.304688 " fill-opacity="1" fill-rule="nonzero"/><path fill="#0089ef" d="M 548.183594 523.421875 L 489.535156 460.175781 C 479.484375 449.335938 462.390625 448.691406 451.554688 458.746094 C 440.714844 468.792969 440.066406 485.890625 450.121094 496.726562 L 508.769531 559.972656 C 518.816406 570.8125 535.914062 571.457031 546.75 561.402344 C 557.585938 551.355469 558.230469 534.261719 548.183594 523.421875 Z M 548.183594 523.421875 " fill-opacity="1" fill-rule="nonzero"/><g clip-path="url(#630bcc4525)"><path fill="#3a2c60" d="M 249.363281 81.246094 L 98.015625 81.246094 C 89.066406 81.246094 81.785156 88.527344 81.785156 97.472656 L 81.785156 248.820312 C 81.785156 257.769531 89.066406 265.050781 98.015625 265.050781 L 249.363281 265.050781 C 258.316406 265.050781 265.59375 257.769531 265.59375 248.820312 L 265.59375 97.472656 C 265.59375 88.527344 258.316406 81.246094 249.363281 81.246094 Z M 255.4375 248.824219 C 255.4375 252.171875 252.710938 254.898438 249.363281 254.898438 L 98.015625 254.898438 C 94.667969 254.898438 91.941406 252.171875 91.941406 248.824219 L 91.941406 97.472656 C 91.941406 94.121094 94.667969 91.398438 98.015625 91.398438 L 249.363281 91.398438 C 252.710938 91.398438 255.4375 94.125 255.4375 97.472656 Z M 255.4375 248.824219 " fill-opacity="1" fill-rule="nonzero"/></g><g clip-path="url(#a3854d39ff)"><path fill="#3a2c60" d="M 296.835938 265.050781 L 448.191406 265.050781 C 457.140625 265.050781 464.414062 257.769531 464.414062 248.820312 L 464.414062 97.472656 C 464.414062 88.527344 457.132812 81.246094 448.191406 81.246094 L 296.835938 81.246094 C 287.882812 81.246094 280.609375 88.527344 280.609375 97.472656 L 280.609375 248.820312 C 280.601562 257.773438 287.882812 265.050781 296.835938 265.050781 Z M 290.757812 97.472656 C 290.757812 94.121094 293.484375 91.398438 296.832031 91.398438 L 448.1875 91.398438 C 451.535156 91.398438 454.253906 94.125 454.253906 97.472656 L 454.253906 248.820312 C 454.253906 252.167969 451.535156 254.894531 448.1875 254.894531 L 296.835938 254.894531 C 293.492188 254.894531 290.761719 252.167969 290.761719 248.820312 L 290.761719 97.472656 Z M 290.757812 97.472656 " fill-opacity="1" fill-rule="nonzero"/></g><g clip-path="url(#1eea79e6ba)"><path fill="#3a2c60" d="M 647.003906 81.246094 L 495.652344 81.246094 C 486.707031 81.246094 479.429688 88.527344 479.429688 97.472656 L 479.429688 248.820312 C 479.429688 257.769531 486.710938 265.050781 495.652344 265.050781 L 647.007812 265.050781 C 655.960938 265.050781 663.238281 257.769531 663.238281 248.820312 L 663.238281 97.472656 C 663.238281 88.527344 655.957031 81.246094 647.003906 81.246094 Z M 653.082031 248.824219 C 653.082031 252.171875 650.355469 254.898438 647.007812 254.898438 L 495.652344 254.898438 C 492.308594 254.898438 489.585938 252.171875 489.585938 248.824219 L 489.585938 97.472656 C 489.585938 94.121094 492.308594 91.398438 495.652344 91.398438 L 647.007812 91.398438 C 650.355469 91.398438 653.082031 94.125 653.082031 97.472656 Z M 653.082031 248.824219 " fill-opacity="1" fill-rule="nonzero"/></g><g clip-path="url(#ecb061744b)"><path fill="#3a2c60" d="M 86.863281 399.890625 C 89.671875 399.890625 91.941406 397.613281 91.941406 394.8125 L 91.941406 361.492188 C 91.941406 358.691406 89.671875 356.414062 86.863281 356.414062 C 84.054688 356.414062 81.785156 358.691406 81.785156 361.492188 L 81.785156 394.8125 C 81.785156 397.613281 84.054688 399.890625 86.863281 399.890625 Z M 86.863281 399.890625 " fill-opacity="1" fill-rule="nonzero"/></g><g clip-path="url(#5a7ee3b90b)"><path fill="#3a2c60" d="M 249.363281 280.605469 L 98.015625 280.605469 C 89.0625 280.605469 81.785156 287.886719 81.785156 296.835938 L 81.785156 330.753906 C 81.785156 333.554688 84.054688 335.832031 86.863281 335.832031 C 89.671875 335.832031 91.941406 333.554688 91.941406 330.753906 L 91.941406 296.835938 C 91.941406 293.488281 94.667969 290.761719 98.015625 290.761719 L 249.363281 290.761719 C 252.710938 290.761719 255.4375 293.488281 255.4375 296.835938 L 255.4375 448.183594 C 255.4375 451.535156 252.710938 454.253906 249.363281 454.253906 L 98.015625 454.253906 C 94.667969 454.253906 91.941406 451.527344 91.941406 448.183594 L 91.941406 421.402344 C 91.941406 418.601562 89.671875 416.324219 86.863281 416.324219 C 84.054688 416.324219 81.785156 418.601562 81.785156 421.402344 L 81.785156 448.183594 C 81.785156 457.128906 89.066406 464.410156 98.015625 464.410156 L 249.363281 464.410156 C 258.316406 464.410156 265.59375 457.128906 265.59375 448.183594 L 265.59375 296.835938 C 265.59375 287.882812 258.316406 280.605469 249.363281 280.605469 Z M 249.363281 280.605469 " fill-opacity="1" fill-rule="nonzero"/></g><path fill="#3a2c60" d="M 647.003906 280.605469 L 495.652344 280.605469 C 486.707031 280.605469 479.429688 287.886719 479.429688 296.835938 L 479.429688 448.011719 C 473.703125 446.210938 467.554688 446.039062 461.734375 447.554688 L 447.089844 431.761719 C 459.644531 415.855469 466.925781 396.507812 467.707031 375.867188 C 468.675781 350.125 459.566406 325.542969 442.046875 306.65625 C 424.535156 287.761719 400.707031 276.824219 374.960938 275.855469 C 349.214844 274.875 324.632812 283.992188 305.742188 301.511719 C 286.847656 319.027344 275.910156 342.851562 274.941406 368.597656 C 273.972656 394.339844 283.082031 418.925781 300.597656 437.8125 C 318.117188 456.703125 341.945312 467.644531 367.691406 468.613281 C 368.933594 468.660156 370.171875 468.6875 371.414062 468.6875 C 390.71875 468.6875 409.191406 462.921875 424.992188 452.285156 L 439.621094 468.054688 C 438.625 470.980469 438.046875 474.070312 437.925781 477.253906 C 437.890625 478.167969 437.914062 479.070312 437.957031 479.96875 L 296.835938 479.96875 C 287.882812 479.96875 280.609375 487.25 280.609375 496.195312 L 280.609375 647.550781 C 280.609375 656.496094 287.890625 663.777344 296.835938 663.777344 L 448.191406 663.777344 C 457.140625 663.777344 464.414062 656.496094 464.414062 647.550781 L 464.414062 519.609375 L 479.429688 535.800781 L 479.429688 647.539062 C 479.429688 656.484375 486.710938 663.769531 495.652344 663.769531 L 647.007812 663.769531 C 655.960938 663.769531 663.238281 656.484375 663.238281 647.539062 L 663.238281 496.191406 C 663.238281 487.246094 655.957031 479.964844 647.007812 479.964844 L 514.808594 479.964844 L 500.386719 464.410156 L 647.007812 464.410156 C 655.960938 464.410156 663.238281 457.128906 663.238281 448.183594 L 663.238281 296.835938 C 663.238281 287.882812 655.957031 280.605469 647.003906 280.605469 Z M 485.808594 463.628906 L 544.457031 526.878906 C 548.394531 531.125 550.445312 536.679688 550.222656 542.519531 C 550.003906 548.359375 547.542969 553.746094 543.296875 557.679688 C 534.476562 565.859375 520.660156 565.332031 512.492188 556.519531 L 453.84375 493.265625 C 449.902344 489.023438 447.851562 483.46875 448.074219 477.628906 C 448.292969 471.789062 450.757812 466.402344 455 462.464844 C 459.191406 458.582031 464.511719 456.65625 469.820312 456.65625 C 475.679688 456.664062 481.523438 459.003906 485.808594 463.628906 Z M 368.070312 458.460938 C 345.039062 457.589844 323.722656 447.800781 308.046875 430.898438 C 292.375 413.996094 284.222656 392.003906 285.089844 368.972656 C 285.960938 345.933594 295.75 324.621094 312.648438 308.949219 C 328.734375 294.03125 349.429688 285.933594 371.246094 285.933594 C 372.355469 285.933594 373.46875 285.953125 374.582031 285.992188 C 397.613281 286.863281 418.929688 296.652344 434.597656 313.550781 C 450.273438 330.453125 458.425781 352.445312 457.554688 375.476562 C 456.6875 398.507812 446.898438 419.824219 429.992188 435.5 C 413.089844 451.171875 391.105469 459.324219 368.070312 458.460938 Z M 433.136719 446.132812 C 434.394531 445.074219 435.6875 444.074219 436.898438 442.953125 C 438.113281 441.824219 439.199219 440.605469 440.347656 439.429688 L 451.992188 451.984375 C 450.640625 452.894531 449.328125 453.886719 448.097656 455.023438 C 446.871094 456.15625 445.785156 457.386719 444.769531 458.671875 Z M 454.253906 647.539062 C 454.253906 650.886719 451.535156 653.613281 448.1875 653.613281 L 296.835938 653.613281 C 293.492188 653.613281 290.761719 650.886719 290.761719 647.539062 L 290.761719 496.191406 C 290.761719 492.84375 293.492188 490.117188 296.835938 490.117188 L 440.105469 490.117188 C 441.539062 493.792969 443.644531 497.207031 446.398438 500.171875 L 454.265625 508.652344 L 454.265625 647.539062 Z M 647.003906 490.117188 C 650.351562 490.117188 653.078125 492.84375 653.078125 496.191406 L 653.078125 647.542969 C 653.078125 650.890625 650.351562 653.617188 647.003906 653.617188 L 495.652344 653.617188 C 492.308594 653.617188 489.585938 650.890625 489.585938 647.542969 L 489.585938 546.753906 L 505.042969 563.425781 C 511.328125 570.203125 519.898438 573.640625 528.484375 573.640625 C 536.261719 573.640625 544.058594 570.820312 550.199219 565.128906 C 556.4375 559.347656 560.050781 551.449219 560.375 542.90625 C 560.695312 534.355469 557.6875 526.210938 551.90625 519.976562 L 524.222656 490.117188 Z M 653.082031 448.183594 C 653.082031 451.535156 650.355469 454.253906 647.007812 454.253906 L 495.652344 454.253906 C 492.308594 454.253906 489.585938 451.527344 489.585938 448.183594 L 489.585938 296.835938 C 489.585938 293.488281 492.308594 290.761719 495.652344 290.761719 L 647.007812 290.761719 C 650.355469 290.761719 653.082031 293.488281 653.082031 296.835938 Z M 653.082031 448.183594 " fill-opacity="1" fill-rule="nonzero"/><g clip-path="url(#594313c64c)"><path fill="#3a2c60" d="M 249.363281 479.964844 L 98.015625 479.964844 C 89.0625 479.964844 81.785156 487.246094 81.785156 496.191406 L 81.785156 647.542969 C 81.785156 656.492188 89.066406 663.773438 98.015625 663.773438 L 249.363281 663.773438 C 258.316406 663.773438 265.59375 656.492188 265.59375 647.542969 L 265.59375 496.191406 C 265.59375 487.246094 258.316406 479.964844 249.363281 479.964844 Z M 255.4375 647.539062 C 255.4375 650.886719 252.710938 653.613281 249.363281 653.613281 L 98.015625 653.613281 C 94.667969 653.613281 91.941406 650.886719 91.941406 647.539062 L 91.941406 496.191406 C 91.941406 492.84375 94.667969 490.117188 98.015625 490.117188 L 249.363281 490.117188 C 252.710938 490.117188 255.4375 492.84375 255.4375 496.191406 Z M 255.4375 647.539062 " fill-opacity="1" fill-rule="nonzero"/></g><path fill="#3a2c60" d="M 371.328125 305.777344 C 334.679688 305.777344 304.871094 335.585938 304.871094 372.226562 C 304.871094 408.867188 334.679688 438.671875 371.320312 438.671875 C 407.960938 438.671875 437.773438 408.867188 437.773438 372.226562 C 437.773438 335.585938 407.96875 305.777344 371.328125 305.777344 Z M 371.320312 428.515625 C 340.28125 428.515625 315.023438 403.265625 315.023438 372.226562 C 315.023438 341.1875 340.28125 315.933594 371.328125 315.933594 C 402.367188 315.933594 427.617188 341.1875 427.617188 372.226562 C 427.617188 403.265625 402.367188 428.515625 371.320312 428.515625 Z M 371.320312 428.515625 " fill-opacity="1" fill-rule="nonzero"/></svg>